{"glyphs":{"0":{"ha":751,"x_min":69,"x_max":682,"o":"m 678 288 q 653 170 674 225 q 593 75 632 115 q 500 12 554 35 q 375 -11 446 -11 q 256 13 311 -11 q 158 76 200 36 q 93 171 117 117 q 69 288 69 225 l 69 607 q 95 724 74 669 q 155 818 117 778 q 248 881 193 858 q 372 904 303 904 q 490 881 435 904 q 588 817 546 857 q 654 722 629 776 q 682 607 679 668 l 678 288 m 186 290 q 201 219 186 253 q 241 159 215 185 q 301 119 267 133 q 375 104 336 104 q 447 119 413 104 q 506 159 481 133 q 546 219 531 185 q 561 290 561 253 l 561 603 q 547 674 561 640 q 506 734 532 708 q 446 774 481 760 q 372 789 411 789 q 301 774 335 789 q 242 734 268 760 q 202 674 217 708 q 188 603 188 640 l 188 554 l 186 290 z "},"1":{"ha":482,"x_min":69,"x_max":371,"o":"m 371 0 l 250 0 l 250 874 l 371 874 l 371 0 m 250 874 l 292 743 l 69 563 l 69 732 l 250 874 z "},"2":{"ha":771,"x_min":69,"x_max":701,"o":"m 69 121 q 92 239 69 190 q 150 322 114 288 q 232 380 186 357 q 326 422 278 403 q 419 456 374 440 q 501 493 465 472 q 560 542 538 514 q 582 613 582 571 q 567 679 582 650 q 527 734 553 708 q 467 774 501 760 q 393 789 432 789 q 322 774 356 789 q 263 734 289 760 q 223 674 238 708 q 208 603 208 640 l 208 532 l 90 532 l 90 607 q 116 724 94 669 q 176 818 138 778 q 269 881 214 858 q 393 904 324 904 q 511 882 456 904 q 608 821 567 860 q 674 729 650 782 q 699 615 699 676 q 662 479 699 532 q 569 390 625 426 q 450 331 514 354 q 331 282 386 307 q 240 225 276 257 q 203 143 203 193 q 282 151 243 154 q 360 140 321 149 q 440 123 400 132 q 522 113 479 114 q 608 121 564 111 q 701 160 653 131 l 701 29 q 602 -10 653 -3 q 498 -13 551 -18 q 390 3 444 -8 q 282 22 336 15 q 174 24 228 28 q 69 -7 121 19 l 69 121 z "},"3":{"ha":747,"x_min":69,"x_max":678,"o":"m 358 536 l 386 536 q 487 572 453 538 q 521 654 521 606 q 508 711 521 686 q 475 753 496 736 q 428 780 454 771 q 374 789 401 789 q 316 779 344 789 q 265 751 288 769 q 229 704 243 732 q 215 642 215 676 l 215 601 l 96 601 l 96 642 q 117 741 96 693 q 173 824 138 789 q 257 881 208 860 q 361 903 306 903 q 469 885 419 903 q 555 833 518 867 q 613 753 592 800 q 633 650 633 707 q 617 568 633 610 q 565 490 601 526 q 651 397 625 450 q 678 286 678 343 q 654 172 678 226 q 590 76 631 118 q 492 10 549 35 q 372 -14 436 -14 q 253 8 308 -14 q 158 69 199 31 q 93 163 117 108 q 69 279 69 217 l 69 311 l 188 311 q 197 229 188 267 q 229 164 207 192 q 287 120 251 136 q 375 104 322 104 q 448 117 414 104 q 507 153 482 129 q 546 209 532 176 q 560 283 560 242 q 549 333 560 310 q 517 376 539 357 q 463 406 496 394 q 385 417 431 417 l 357 417 l 358 536 z "},"4":{"ha":768,"x_min":42,"x_max":726,"o":"m 600 0 l 479 0 l 479 874 l 600 874 l 600 0 m 479 874 l 519 751 l 126 222 l 42 306 l 479 874 m 726 188 q 601 206 661 204 q 486 200 542 207 q 376 183 431 193 q 268 166 322 172 q 158 163 214 160 q 42 188 101 167 l 42 306 q 158 284 103 286 q 268 290 214 282 q 376 308 322 297 q 486 326 431 319 q 601 330 542 333 q 726 306 661 326 l 726 188 z "},"5":{"ha":731,"x_min":69,"x_max":675,"o":"m 111 888 q 233 919 178 914 q 334 919 288 925 q 421 900 381 913 q 498 880 461 888 q 571 874 535 872 q 646 897 607 875 l 646 776 q 573 751 608 754 q 503 753 538 747 q 435 772 468 760 q 369 791 401 783 q 303 797 336 799 q 236 778 269 796 l 236 578 q 308 599 272 590 q 378 608 343 608 q 492 588 438 608 q 587 528 546 568 q 651 431 628 489 q 675 294 675 372 q 651 180 675 233 q 586 86 628 126 q 490 23 544 46 q 372 0 435 0 q 248 23 303 0 q 155 86 193 46 q 95 181 117 126 q 69 297 74 235 l 69 333 l 188 333 l 188 301 q 202 230 188 264 q 242 170 217 196 q 301 130 268 144 q 372 115 335 115 q 446 130 411 115 q 506 170 481 144 q 547 230 532 196 q 561 304 561 264 q 544 388 561 353 q 498 444 526 422 q 435 476 469 465 q 367 486 400 486 q 297 473 326 486 q 236 440 267 460 l 111 440 l 111 767 l 111 888 z "},"6":{"ha":742,"x_min":69,"x_max":672,"o":"m 179 525 q 209 562 189 547 q 255 585 229 576 q 310 599 281 594 q 367 603 339 603 q 499 576 442 603 q 594 506 556 550 q 652 407 632 463 q 672 293 672 351 q 653 181 672 236 q 595 83 633 126 q 501 15 557 40 q 369 -11 444 -11 q 251 13 306 -11 q 156 76 196 36 q 92 171 115 117 q 69 288 69 225 l 69 607 q 94 724 74 669 q 150 818 114 778 q 240 881 186 858 q 363 904 293 904 q 476 884 422 904 q 570 828 529 864 q 637 744 611 793 q 668 638 663 696 l 547 638 q 486 747 538 706 q 363 789 435 789 q 292 774 325 789 q 235 734 260 760 q 196 674 210 708 q 182 603 182 640 l 179 525 m 367 488 q 288 471 322 488 q 230 427 253 454 q 195 365 207 400 q 183 294 183 331 q 195 224 183 258 q 230 163 207 190 q 288 120 253 136 q 369 104 324 104 q 441 119 407 104 q 500 159 475 133 q 540 219 525 185 q 556 290 556 253 l 556 301 q 541 373 556 339 q 501 433 526 407 q 440 473 475 458 q 367 488 406 488 z "},"7":{"ha":725,"x_min":56,"x_max":683,"o":"m 486 747 q 431 741 460 738 q 369 751 401 744 q 300 765 336 758 q 224 769 264 772 q 142 750 185 767 q 56 694 100 733 l 56 838 q 150 887 100 875 q 252 897 200 899 q 358 884 304 894 q 465 867 411 874 q 571 863 518 861 q 674 889 624 865 q 679 892 674 889 l 683 889 l 311 0 l 175 0 l 486 747 z "},"8":{"ha":728,"x_min":56,"x_max":672,"o":"m 672 269 q 646 147 672 200 q 576 57 619 93 q 478 3 533 21 q 368 -15 424 -15 q 255 3 311 -15 q 154 58 199 22 q 83 149 110 94 q 56 272 56 203 q 83 389 56 328 q 169 497 111 450 q 121 575 136 533 q 106 656 106 617 q 128 760 106 715 q 186 835 150 806 q 269 881 222 865 q 364 896 315 896 q 459 881 413 896 q 542 835 506 865 q 601 761 579 806 q 624 657 624 717 q 608 572 624 617 q 556 492 592 528 q 644 389 615 451 q 672 269 672 326 m 363 100 q 443 114 408 100 q 501 151 478 128 q 535 203 524 174 q 547 261 547 232 q 535 319 547 290 q 500 372 524 349 q 442 408 476 394 q 364 422 408 422 q 283 408 318 422 q 225 372 249 394 q 189 322 201 350 q 176 264 176 293 q 189 206 176 235 q 225 153 201 176 q 283 115 249 129 q 363 100 318 100 m 363 535 q 469 572 433 535 q 506 657 506 608 q 497 703 506 681 q 470 743 488 725 q 426 772 453 761 q 364 782 399 782 q 301 772 328 782 q 256 743 274 761 q 228 703 238 725 q 219 657 219 681 q 255 574 219 611 q 363 535 290 538 z "},"9":{"ha":728,"x_min":56,"x_max":658,"o":"m 549 368 q 518 331 538 346 q 473 308 499 317 q 418 294 447 299 q 361 290 389 290 q 229 317 286 290 q 134 387 172 343 q 76 486 96 431 q 56 600 56 542 q 75 712 56 657 q 133 809 94 767 q 227 878 171 851 q 358 904 283 904 q 477 881 422 904 q 572 817 532 857 q 635 722 613 776 q 658 606 658 668 l 658 286 q 634 169 654 224 q 578 75 614 115 q 488 12 542 35 q 365 -11 435 -11 q 251 9 304 -11 q 158 65 199 29 q 91 149 117 100 q 60 256 65 197 l 181 256 q 242 146 190 188 q 365 104 293 104 q 435 119 403 104 q 493 159 468 133 q 532 219 518 185 q 546 290 546 253 l 549 368 m 361 406 q 440 422 406 406 q 498 466 475 439 q 533 528 521 493 q 544 599 544 563 q 533 669 544 635 q 498 730 521 703 q 440 773 475 757 q 358 789 404 789 q 287 774 321 789 q 228 734 253 760 q 188 674 203 708 q 172 603 172 640 l 172 592 q 187 520 172 554 q 227 460 201 486 q 288 420 253 435 q 361 406 322 406 z "},"\u0000":{"ha":0,"x_min":0,"x_max":0,"o":""},"\r":{"ha":694,"x_min":0,"x_max":0,"o":""}," ":{"ha":694,"x_min":0,"x_max":0,"o":""},"Д":{"ha":928,"x_min":28,"x_max":907,"o":"m 742 -162 l 760 0 l 164 0 l 182 -162 l 57 -162 l 28 126 l 158 126 q 221 249 207 176 q 242 408 235 322 q 253 516 246 461 q 276 622 260 571 q 322 719 293 674 q 401 799 351 765 q 525 853 451 833 q 704 874 599 874 l 792 874 l 792 128 l 907 128 l 865 -161 l 742 -162 m 668 124 l 668 751 q 508 719 565 747 q 420 644 450 692 q 381 535 390 597 q 365 397 371 472 q 347 261 358 331 q 308 128 336 192 l 668 124 z "},"Е":{"ha":733,"x_min":83,"x_max":692,"o":"m 692 0 l 83 0 l 83 872 l 668 872 l 668 749 l 206 749 l 206 506 q 278 492 243 492 q 364 506 324 492 q 446 519 404 519 q 511 504 481 519 l 511 376 q 443 389 475 389 q 360 378 400 389 q 274 367 319 367 q 206 376 240 367 l 206 122 l 692 122 l 692 0 z "},"Ё":{"ha":732,"x_min":83,"x_max":692,"o":"m 263 1011 q 214 1030 233 1011 q 194 1076 194 1049 q 214 1123 194 1104 q 263 1142 233 1142 q 310 1123 290 1142 q 331 1076 331 1104 q 310 1030 331 1049 q 263 1011 290 1011 m 488 1011 q 440 1030 460 1011 q 419 1076 419 1049 q 440 1123 419 1104 q 488 1142 460 1142 q 537 1123 517 1142 q 557 1076 557 1104 q 537 1030 557 1049 q 488 1011 517 1011 m 692 0 l 83 0 l 83 872 l 668 872 l 668 749 l 206 749 l 206 506 q 278 492 243 492 q 364 506 324 492 q 446 519 404 519 q 511 504 481 519 l 511 376 q 443 389 475 389 q 360 378 400 389 q 274 367 319 367 q 206 376 240 367 l 206 122 l 692 122 l 692 0 z "},"Ж":{"ha":1344,"x_min":56,"x_max":1289,"o":"m 1039 594 q 989 517 1017 556 q 921 446 961 478 q 990 375 963 413 q 1038 301 1017 338 q 1078 230 1058 264 q 1126 169 1099 196 q 1191 128 1153 143 q 1289 113 1229 113 l 1289 -8 q 1148 14 1206 -8 q 1050 70 1090 36 q 983 146 1010 104 q 933 228 956 188 q 893 295 913 265 q 852 345 874 325 q 802 376 831 365 q 733 388 774 388 l 733 -1 l 614 -1 l 614 388 q 544 376 574 388 q 493 345 515 365 q 451 295 471 325 q 411 228 432 265 q 362 146 389 188 q 294 70 335 104 q 197 14 254 36 q 56 -8 139 -8 l 56 113 q 155 128 115 113 q 222 170 194 144 q 268 231 249 196 q 309 302 288 265 q 357 376 331 339 q 425 447 383 414 q 359 513 385 478 q 313 583 333 547 q 273 651 293 618 q 225 708 253 683 q 158 747 197 732 q 57 763 118 763 l 57 885 q 217 857 156 885 q 320 788 279 829 q 389 697 361 746 q 445 607 417 649 q 513 537 474 565 q 614 508 551 508 l 614 872 l 733 872 l 733 508 q 835 538 796 510 q 903 608 874 567 q 960 698 932 650 q 1028 788 988 746 q 1130 856 1068 829 q 1289 883 1192 883 l 1289 760 q 1194 747 1232 760 q 1129 713 1157 735 q 1081 660 1101 690 q 1039 594 1060 629 z "},"З":{"ha":867,"x_min":28,"x_max":811,"o":"m 714 496 q 789 397 767 447 q 811 297 811 347 q 780 167 811 225 q 696 69 749 110 q 573 6 643 28 q 425 -15 503 -15 q 280 6 351 -15 q 152 70 208 28 q 62 176 96 113 q 28 322 28 239 q 28 334 28 329 q 29 346 29 339 l 29 353 l 150 353 l 150 339 q 149 319 149 332 q 175 230 149 269 q 244 162 201 190 q 342 119 288 133 q 450 104 396 104 q 532 119 489 104 q 611 159 575 133 q 670 219 647 185 q 693 290 693 253 q 685 335 693 314 q 657 381 676 357 q 551 313 611 336 q 425 289 490 289 q 352 298 388 289 q 288 326 317 307 q 242 376 260 346 q 225 449 225 407 q 243 526 225 494 q 291 578 261 558 q 358 606 321 597 q 435 615 396 615 q 530 603 486 615 q 614 568 574 590 q 624 598 619 585 q 628 625 628 611 q 612 689 628 661 q 569 736 596 717 q 509 765 543 756 q 439 775 475 775 q 358 766 399 775 q 283 735 317 757 q 227 677 249 713 q 206 590 206 642 l 79 590 q 108 726 79 669 q 185 819 138 782 q 293 873 232 856 q 417 890 354 890 q 538 873 479 890 q 642 822 597 856 q 715 741 688 789 q 743 632 743 693 q 738 567 743 600 q 714 496 733 535 m 571 460 q 546 479 563 469 q 510 496 529 489 q 469 508 490 503 q 429 513 447 513 q 370 498 399 513 q 342 456 342 483 q 372 413 342 426 q 431 400 401 400 q 472 406 450 400 q 513 419 493 411 q 547 438 532 428 q 571 460 563 449 z "},"И":{"ha":915,"x_min":83,"x_max":832,"o":"m 832 874 l 832 -3 l 710 -3 l 710 668 l 196 -3 l 83 -3 l 83 874 l 206 874 l 206 215 l 715 874 l 832 874 z "},"Й":{"ha":915,"x_min":83,"x_max":832,"o":"m 651 986 q 608 998 628 994 q 571 1001 589 1001 q 530 998 549 1001 q 490 990 511 994 q 486 990 488 990 q 483 989 485 989 q 433 978 458 983 q 379 974 407 974 q 336 977 358 974 q 290 990 314 981 l 290 1111 q 336 1091 314 1096 q 379 1086 358 1086 q 419 1090 399 1086 q 463 1099 440 1093 q 513 1110 486 1106 q 568 1114 539 1114 q 608 1111 588 1114 q 651 1101 628 1108 l 651 986 m 832 874 l 832 -3 l 710 -3 l 710 668 l 196 -3 l 83 -3 l 83 874 l 206 874 l 206 215 l 715 874 l 832 874 z "},"К":{"ha":883,"x_min":42,"x_max":828,"o":"m 603 289 q 651 195 628 238 q 699 122 674 153 q 756 75 725 92 q 828 58 786 58 l 828 -62 q 705 -35 757 -62 q 614 36 653 -7 q 547 132 575 79 q 493 235 518 185 q 469 284 482 260 q 443 332 457 308 q 401 306 422 317 q 360 290 381 296 q 323 281 344 283 q 288 275 301 278 l 288 0 l 167 0 l 167 276 q 133 288 147 281 q 107 306 118 296 q 58 365 75 329 q 42 440 42 400 l 42 449 q 69 533 44 494 q 133 592 93 571 q 149 599 140 594 q 171 606 158 603 l 171 874 l 290 874 l 290 600 q 342 584 311 594 q 399 557 374 574 q 432 534 417 546 q 463 508 447 522 q 490 540 476 524 q 517 575 503 557 q 597 726 569 649 q 624 872 624 803 l 744 872 q 711 690 744 783 q 615 506 678 596 q 576 455 596 479 q 536 410 557 431 q 572 350 556 381 q 603 289 588 319 m 225 379 q 263 383 242 379 q 306 394 285 388 q 349 410 328 401 q 383 428 369 419 q 308 474 354 454 q 219 494 261 494 q 178 478 194 494 q 163 436 163 461 q 164 422 163 431 q 172 403 165 413 q 190 388 178 394 q 225 379 203 381 z "},"Л":{"ha":808,"x_min":28,"x_max":739,"o":"m 739 871 l 739 1 l 618 1 l 618 753 q 601 753 610 753 q 585 754 593 754 q 494 743 540 754 q 411 696 447 732 q 326 410 326 617 q 238 47 326 165 q 145 -35 199 -6 q 28 -65 92 -65 l 28 56 q 120 93 85 56 q 174 185 156 131 q 199 301 193 240 q 206 411 206 363 q 325 783 206 667 q 392 833 358 815 q 463 860 426 851 q 540 872 500 869 q 626 874 581 874 q 653 872 636 874 q 678 871 671 871 l 739 871 z "},"М":{"ha":1114,"x_min":83,"x_max":1031,"o":"m 1031 872 l 1031 1 l 911 1 l 911 733 q 863 673 885 710 q 818 596 840 636 q 769 499 793 547 q 715 414 744 451 q 647 353 685 376 q 554 331 608 331 q 463 353 500 331 q 397 412 425 375 q 346 494 368 449 q 300 588 324 540 q 253 670 276 632 q 203 733 231 708 l 203 1 l 83 1 l 83 872 l 200 872 q 272 833 240 858 q 328 774 303 807 q 373 705 353 742 q 413 632 393 668 q 449 556 433 590 q 479 499 464 522 q 512 464 494 476 q 554 451 529 451 q 599 464 581 451 q 633 499 617 476 q 665 556 649 522 q 701 632 681 590 q 740 705 719 668 q 786 774 761 742 q 842 833 811 807 q 914 872 874 858 l 1031 872 z "},"Н":{"ha":915,"x_min":83,"x_max":832,"o":"m 832 874 l 832 0 l 711 0 l 711 389 l 204 389 l 204 0 l 83 0 l 83 874 l 204 874 l 204 511 l 711 511 l 711 874 l 832 874 z "},"О":{"ha":994,"x_min":42,"x_max":953,"o":"m 496 -15 q 319 20 401 -15 q 175 117 236 56 q 78 261 114 179 q 42 438 42 343 q 78 613 42 531 q 175 756 114 694 q 319 853 236 818 q 496 889 401 889 q 674 853 590 889 q 819 756 757 818 q 917 613 881 694 q 953 438 953 531 q 917 261 953 343 q 819 117 881 179 q 674 20 757 56 q 496 -15 590 -15 m 496 768 q 366 742 426 768 q 260 671 306 715 q 189 566 215 626 q 163 438 163 506 q 189 308 163 368 q 260 203 215 247 q 366 132 306 158 q 496 106 426 106 q 628 132 567 106 q 734 203 689 158 q 805 308 779 247 q 831 438 831 368 q 805 566 831 506 q 734 671 779 626 q 628 742 689 715 q 496 768 567 768 z "},"П":{"ha":915,"x_min":83,"x_max":832,"o":"m 832 872 l 832 -1 l 711 -1 l 711 749 l 206 749 l 206 -1 l 83 -1 l 83 872 l 832 872 z "},"Р":{"ha":864,"x_min":56,"x_max":794,"o":"m 482 881 q 717 782 640 871 q 794 542 794 693 q 767 426 794 479 q 694 332 740 372 q 585 269 647 292 q 456 246 524 246 l 264 246 l 264 0 l 142 0 l 142 735 q 97 739 118 736 q 56 750 76 742 l 56 867 q 113 857 83 860 q 168 854 143 854 q 238 858 204 854 q 307 867 272 863 q 378 877 343 874 q 453 881 413 881 l 482 881 m 685 549 q 678 623 685 586 q 649 689 671 660 q 585 738 626 718 q 474 761 543 757 q 381 758 435 761 q 264 740 328 756 l 264 367 l 456 367 q 542 379 501 367 q 613 416 582 392 q 663 474 644 440 q 685 549 682 507 z "},"С":{"ha":974,"x_min":42,"x_max":932,"o":"m 925 286 q 840 142 897 207 q 701 35 783 76 q 497 -14 604 -14 q 369 3 431 -14 q 256 53 308 21 q 160 132 203 86 q 89 236 118 178 q 53 336 65 285 q 42 438 42 388 q 59 561 42 500 q 108 676 76 622 q 188 773 140 729 q 294 847 235 817 q 501 896 394 896 q 627 878 567 896 q 740 828 688 861 q 835 750 793 796 q 907 646 878 704 q 932 589 922 617 q 856 590 882 589 q 817 590 829 590 q 801 591 804 590 q 799 592 799 592 q 677 726 757 678 q 501 775 597 775 q 349 739 419 775 q 270 684 304 717 q 213 612 236 651 q 176 528 189 572 q 164 438 164 483 q 199 290 164 361 q 320 156 240 204 q 497 107 400 107 q 647 143 572 107 q 733 204 696 167 q 794 286 771 242 l 925 286 z "},"Т":{"ha":886,"x_min":28,"x_max":858,"o":"m 858 872 q 844 787 857 826 q 806 717 831 747 q 742 670 781 688 q 654 653 704 653 q 576 660 614 653 q 496 683 539 668 l 496 0 l 374 0 l 374 732 q 310 750 343 743 q 243 757 276 757 q 177 744 207 757 q 146 689 147 732 l 28 689 q 45 769 28 735 q 92 827 63 804 q 160 862 121 850 q 246 874 200 874 q 370 858 315 874 q 472 822 425 842 q 562 787 518 803 q 653 771 606 771 q 696 776 679 771 q 722 794 713 782 q 734 825 731 806 q 739 872 738 844 l 858 872 z "},"У":{"ha":793,"x_min":28,"x_max":765,"o":"m 765 874 q 677 719 721 813 q 597 514 633 625 q 560 400 579 460 q 513 283 540 340 q 447 173 485 225 q 356 81 410 121 q 232 19 303 42 q 67 -4 161 -4 l 67 129 q 164 138 121 129 q 240 164 207 147 q 300 206 274 181 q 349 263 326 231 l 28 874 l 169 874 l 422 386 q 462 508 443 447 q 502 630 481 569 q 551 751 524 690 q 617 874 578 813 l 765 874 z "},"Ф":{"ha":1147,"x_min":42,"x_max":1106,"o":"m 710 836 q 864 805 792 836 q 990 720 936 774 q 1074 595 1043 667 q 1106 442 1106 524 q 1074 288 1106 360 q 990 163 1043 217 q 864 78 936 110 q 710 47 792 47 l 631 47 l 631 0 l 515 0 l 515 47 l 422 47 q 272 82 342 50 q 151 167 203 114 q 71 291 100 221 q 42 442 42 361 q 71 594 42 522 q 151 719 100 665 q 273 805 203 774 q 424 836 343 836 l 515 836 l 515 872 l 631 872 l 631 836 l 710 836 m 515 165 l 515 718 l 425 718 q 319 694 368 717 q 235 635 271 672 q 179 547 200 597 q 158 442 158 497 q 179 335 158 385 q 235 249 200 286 q 319 189 271 211 q 425 165 368 167 l 515 165 m 710 164 q 819 186 768 164 q 907 246 869 208 q 966 334 944 283 q 988 442 988 385 q 965 549 988 499 q 906 638 943 600 q 817 697 868 675 q 710 718 767 718 l 631 718 l 631 164 l 710 164 z "},"Ц":{"ha":929,"x_min":83,"x_max":888,"o":"m 654 178 q 740 164 697 178 q 815 125 782 150 q 867 64 847 100 q 888 -19 888 28 l 888 -31 q 871 -84 886 -60 q 832 -126 856 -108 q 776 -155 808 -144 q 710 -165 744 -165 l 697 -165 q 594 -146 639 -162 q 513 -104 549 -129 q 451 -47 478 -79 q 403 18 425 -15 q 298 -7 353 -1 q 178 -12 243 -12 q 131 -10 154 -12 q 83 -1 107 -8 l 83 872 l 204 872 l 204 110 q 217 107 211 107 q 231 107 224 107 q 299 116 263 107 q 374 138 336 125 q 451 165 413 151 q 524 186 489 178 q 529 247 525 221 q 533 297 533 274 q 520 451 533 375 q 507 608 507 528 q 519 725 507 668 q 567 821 531 782 q 736 888 626 888 l 736 767 q 678 755 700 767 q 644 722 656 743 q 630 671 633 700 q 626 607 626 642 q 640 460 626 533 q 654 306 654 388 q 649 240 654 276 q 638 178 644 203 l 654 178 m 706 -58 q 781 -17 781 -58 q 768 18 781 1 q 735 47 756 35 q 685 67 714 60 q 626 74 657 74 q 567 70 600 74 q 513 60 533 67 q 539 27 521 47 q 582 -12 557 7 q 638 -44 607 -31 q 706 -58 669 -58 z "},"Ч":{"ha":775,"x_min":14,"x_max":692,"o":"m 692 874 l 692 0 l 572 0 l 572 385 q 534 350 556 363 q 488 331 513 338 q 440 323 464 325 q 394 321 415 321 q 288 347 335 321 q 209 419 242 374 q 160 526 176 465 q 143 654 143 586 q 138 702 143 679 q 118 742 132 725 q 78 769 104 760 q 14 779 53 779 l 14 896 q 158 871 107 896 q 233 808 210 846 q 260 729 256 771 q 264 654 264 688 q 298 502 264 561 q 411 443 332 443 q 531 499 490 443 q 572 654 572 554 l 572 874 l 692 874 z "},"Ш":{"ha":1289,"x_min":83,"x_max":1233,"o":"m 83 0 l 83 872 l 206 872 l 206 124 l 544 124 l 544 872 l 668 872 l 668 124 l 979 124 q 987 206 985 165 q 989 288 989 247 q 985 450 989 371 q 979 515 983 483 q 975 578 975 547 q 988 718 975 656 q 1044 825 1001 781 q 1233 893 1108 893 l 1233 772 q 1172 765 1196 772 q 1132 742 1147 757 q 1104 678 1111 719 q 1097 581 1097 636 q 1101 521 1097 553 q 1107 457 1104 489 q 1110 375 1110 417 q 1111 288 1111 333 q 1105 147 1111 218 q 1081 0 1099 75 l 1018 0 l 83 0 z "},"Щ":{"ha":1404,"x_min":83,"x_max":1349,"o":"m 1103 199 q 1236 165 1188 190 q 1310 111 1285 140 q 1342 53 1335 82 q 1349 10 1349 25 l 1349 0 q 1330 -63 1346 -33 q 1289 -115 1314 -93 q 1231 -149 1264 -136 q 1161 -161 1199 -161 l 1150 -161 q 1039 -135 1088 -157 q 953 -83 990 -114 q 888 -16 915 -51 q 839 51 860 19 q 790 44 821 47 q 740 36 760 40 q 532 -3 646 15 q 307 -22 418 -22 q 198 -17 254 -22 q 83 1 142 -12 l 83 113 q 85 129 83 128 l 85 872 l 208 872 l 208 107 q 303 103 256 103 q 425 108 358 103 q 543 122 492 114 l 543 872 l 668 872 l 668 146 q 692 151 679 149 q 715 157 704 154 q 849 181 778 169 q 978 200 919 193 q 986 321 986 256 q 985 378 986 349 q 982 435 983 407 q 981 443 982 439 q 981 451 981 447 q 978 512 979 482 q 976 571 976 542 q 990 710 976 646 q 1049 822 1004 775 q 1253 896 1117 896 l 1253 771 q 1139 738 1169 771 q 1108 669 1115 714 q 1100 571 1100 625 q 1101 515 1100 543 q 1104 458 1103 488 q 1108 388 1107 424 q 1110 317 1110 353 q 1108 257 1110 286 q 1103 199 1107 228 m 965 83 q 1002 29 978 53 q 1055 -10 1026 6 q 1110 -35 1083 -26 q 1157 -43 1138 -43 q 1181 -40 1168 -43 q 1206 -31 1194 -37 q 1226 -14 1218 -25 q 1235 13 1235 -3 q 1220 49 1235 33 q 1183 74 1206 64 q 1132 88 1160 83 q 1079 93 1104 93 q 1022 90 1050 93 q 965 83 994 88 z "},"Ъ":{"ha":933,"x_min":-14,"x_max":878,"o":"m 356 578 q 442 592 396 589 q 532 594 489 594 q 661 578 599 594 q 772 526 724 563 q 849 433 819 490 q 878 294 878 376 q 851 172 878 226 q 779 80 825 118 q 672 22 733 42 q 542 1 611 1 l 229 1 l 229 625 q 193 731 229 692 q 90 771 157 771 l -14 771 l -14 896 l 90 896 q 290 814 219 896 q 344 703 333 765 q 356 578 356 640 m 542 126 q 619 136 581 126 q 688 166 657 146 q 738 218 718 186 q 757 294 757 250 q 739 378 757 344 q 691 432 721 413 q 621 460 661 451 q 538 468 581 468 q 442 465 492 468 q 356 450 392 461 l 356 126 l 542 126 z "},"Ы":{"ha":1104,"x_min":56,"x_max":1021,"o":"m 1021 875 l 1021 1 l 899 1 l 899 875 l 1021 875 m 469 582 q 585 564 531 582 q 681 510 640 546 q 746 422 722 475 q 769 299 769 368 q 745 178 769 233 q 678 84 721 124 q 578 22 636 44 q 456 0 521 0 l 136 0 l 136 443 q 115 445 124 443 q 97 449 106 447 q 79 455 89 451 q 56 463 69 458 l 56 590 q 95 573 79 579 q 136 564 111 567 l 136 874 l 258 874 l 258 567 q 384 579 333 576 q 469 582 435 582 m 456 121 q 526 133 492 121 q 588 167 561 144 q 632 223 615 190 q 649 297 649 256 q 597 422 649 381 q 465 464 544 464 q 363 458 419 464 q 265 447 307 453 q 262 447 263 447 q 258 446 261 446 l 258 121 l 456 121 z "},"Ь":{"ha":811,"x_min":56,"x_max":769,"o":"m 469 582 q 585 564 531 582 q 681 510 640 546 q 746 422 722 475 q 769 299 769 368 q 745 178 769 233 q 678 84 721 124 q 578 22 636 44 q 456 0 521 0 l 136 0 l 136 443 q 115 445 124 443 q 97 449 106 447 q 79 455 89 451 q 56 463 69 458 l 56 590 q 95 573 79 579 q 136 564 111 567 l 136 874 l 258 874 l 258 567 q 384 579 333 576 q 469 582 435 582 m 456 121 q 526 133 492 121 q 588 167 561 144 q 632 223 615 190 q 649 297 649 256 q 597 422 649 381 q 465 464 544 464 q 363 458 419 464 q 265 447 307 453 q 262 447 263 447 q 258 446 261 446 l 258 121 l 456 121 z "},"Э":{"ha":967,"x_min":42,"x_max":925,"o":"m 900 578 q 925 429 925 504 q 878 228 925 322 q 806 124 849 169 q 710 45 763 78 q 596 -5 657 13 q 468 -22 535 -22 q 363 -10 415 -22 q 261 25 310 1 q 127 127 182 65 q 42 264 72 189 l 178 264 q 317 133 224 182 q 468 99 388 99 q 644 148 564 99 q 768 282 725 197 q 791 340 782 310 q 804 399 800 369 q 752 394 778 399 q 700 383 726 389 q 647 373 674 378 q 590 368 619 368 q 535 371 565 368 q 472 385 506 374 l 472 510 q 537 494 508 499 q 590 489 565 489 q 690 501 640 489 q 794 514 740 513 q 790 524 793 517 q 786 538 788 531 q 615 732 742 668 q 464 768 540 768 q 369 754 414 768 q 285 714 324 740 q 219 651 247 688 q 174 569 190 615 l 43 569 q 99 693 61 635 q 192 795 138 751 q 316 865 247 839 q 464 890 385 890 q 569 877 518 890 q 671 840 621 864 q 813 732 754 800 q 900 578 871 664 z "},"Ю":{"ha":1274,"x_min":83,"x_max":1246,"o":"m 792 889 q 969 853 886 889 q 1113 757 1051 818 q 1210 613 1175 696 q 1246 436 1246 531 q 1210 259 1246 342 q 1113 115 1175 176 q 969 19 1051 54 q 792 -17 886 -17 q 629 13 706 -17 q 493 96 553 43 q 395 221 433 149 q 346 378 357 293 l 204 378 l 204 -1 l 83 -1 l 83 872 l 204 872 l 204 500 l 346 500 q 395 655 357 583 q 493 778 433 726 q 629 860 553 831 q 792 889 706 889 m 792 104 q 922 131 861 104 q 1027 201 982 157 q 1098 306 1072 246 q 1124 436 1124 367 q 1098 566 1124 506 q 1027 672 1072 626 q 922 742 982 717 q 792 768 861 768 q 662 742 722 768 q 557 672 601 717 q 487 566 513 626 q 461 436 461 506 q 487 306 461 367 q 557 201 513 246 q 662 131 601 157 q 792 104 722 104 z "},"Я":{"ha":847,"x_min":28,"x_max":792,"o":"m 792 478 q 776 406 792 442 q 728 343 760 371 q 708 324 717 332 q 683 308 699 315 l 683 1 l 565 1 l 565 282 q 559 283 563 282 q 553 283 556 283 q 476 288 497 286 q 444 293 454 290 q 372 172 413 235 q 281 58 332 110 q 166 -26 229 7 q 28 -60 103 -60 l 28 58 q 116 83 75 58 q 192 145 157 107 q 256 231 226 183 q 313 326 286 279 q 169 432 217 365 q 121 600 121 499 q 159 735 121 681 q 258 821 197 789 q 394 867 318 853 q 544 881 469 881 q 616 878 578 881 q 683 872 654 876 l 683 622 q 693 619 688 622 q 762 563 735 603 q 792 478 789 524 m 461 544 q 515 590 489 572 q 565 617 542 607 q 564 698 564 669 q 564 740 564 726 q 563 758 564 756 q 463 755 518 758 q 358 735 407 751 q 274 684 308 718 q 240 590 240 650 q 271 504 240 547 q 383 432 301 461 q 423 496 404 467 q 461 544 442 525 m 554 400 q 590 403 568 400 q 634 416 613 407 q 671 440 656 425 q 686 476 686 454 q 671 508 686 492 q 636 524 656 524 q 592 511 614 524 q 552 480 571 499 q 518 440 533 461 q 493 401 503 419 l 554 400 z "},"б":{"ha":794,"x_min":49,"x_max":767,"o":"m 432 701 q 560 674 499 701 q 667 597 621 646 q 740 484 713 549 q 767 344 767 419 q 738 203 767 269 q 661 89 710 138 q 546 12 613 40 q 404 -17 479 -17 q 274 6 338 -17 q 160 75 210 29 q 79 190 110 121 q 49 353 49 260 q 89 535 49 460 q 183 660 129 610 q 262 721 218 692 q 344 778 306 750 q 409 836 383 807 q 435 896 435 865 l 576 899 q 554 824 571 854 q 513 772 538 793 q 460 733 489 750 q 403 700 432 717 q 417 702 411 703 q 432 701 424 701 m 404 111 q 495 130 453 111 q 569 180 538 149 q 620 253 601 211 q 639 344 639 296 q 620 435 639 392 q 569 509 601 478 q 495 559 538 540 q 404 578 453 578 q 308 558 351 578 q 235 506 265 539 q 189 428 206 472 q 172 333 172 383 q 192 249 172 289 q 245 178 213 208 q 319 129 278 147 q 404 111 361 111 z "},"в":{"ha":822,"x_min":96,"x_max":753,"o":"m 621 385 q 674 362 650 375 q 716 329 699 349 q 743 282 733 310 q 753 217 753 254 q 724 107 753 151 q 651 35 696 63 q 549 -3 606 8 q 433 -15 492 -15 q 342 -10 386 -15 q 260 3 297 -4 q 197 19 224 11 q 160 32 171 28 l 160 558 l 96 558 l 96 685 l 108 685 q 182 690 146 685 q 254 699 218 694 q 328 709 290 704 q 407 714 367 714 q 504 705 456 714 q 591 672 553 696 q 653 608 629 649 q 676 506 676 568 q 670 460 676 479 q 656 428 664 442 q 638 403 647 414 q 621 385 628 393 m 435 106 q 494 109 460 106 q 560 124 529 113 q 612 158 590 136 q 633 218 633 181 q 616 265 633 247 q 573 291 599 282 q 518 303 547 300 q 467 308 489 307 q 424 307 461 307 l 424 436 l 471 436 q 503 440 486 438 q 533 451 519 443 q 554 473 546 458 q 563 511 563 488 q 549 553 563 538 q 515 578 536 569 q 467 588 493 586 q 415 590 440 590 q 357 586 390 590 q 283 578 324 582 l 283 125 q 359 113 319 119 q 435 106 399 106 z "},"г":{"ha":654,"x_min":97,"x_max":613,"o":"m 613 571 l 224 571 l 224 1 l 97 1 l 97 696 l 613 696 l 613 571 z "},"A":{"ha":924,"x_min":42,"x_max":882,"o":"m 532 874 q 683 496 613 671 q 743 345 713 421 q 801 203 774 269 q 849 83 828 136 q 882 1 871 31 l 753 1 q 694 151 724 76 q 633 304 664 225 q 538 318 586 318 q 466 313 501 318 q 394 301 431 307 l 288 285 l 172 1 l 42 1 l 157 290 q 106 303 133 294 q 53 325 79 311 l 53 464 q 131 424 94 438 q 203 406 168 410 l 392 874 l 532 874 m 371 419 q 374 420 374 419 q 378 421 375 421 q 453 434 414 428 q 532 440 492 440 q 556 440 543 440 q 579 438 568 439 l 571 464 l 464 729 l 336 414 q 353 417 344 417 q 371 419 363 417 z "},"B":{"ha":839,"x_min":42,"x_max":783,"o":"m 647 482 q 750 398 717 454 q 783 275 783 342 q 752 139 783 192 q 669 56 721 86 q 550 13 617 25 q 411 1 483 1 l 124 1 l 124 735 l 93 735 q 69 738 82 735 q 42 746 57 742 l 42 861 q 73 856 56 858 q 107 853 90 853 q 167 857 138 853 q 228 861 197 861 q 314 871 271 867 q 404 875 357 875 q 511 865 458 875 q 606 831 564 856 q 675 761 649 806 q 701 647 701 717 q 686 570 701 600 q 653 519 671 540 l 615 494 l 647 482 m 664 261 q 640 338 664 307 q 578 388 615 369 q 498 413 542 406 q 414 421 454 421 l 349 421 l 349 539 l 414 539 q 503 556 467 543 q 565 596 540 568 q 578 615 572 603 q 585 650 585 628 q 583 658 585 654 q 582 669 582 663 q 562 712 578 694 q 523 739 546 729 q 472 753 500 749 q 413 757 443 757 q 319 751 361 757 q 242 743 276 744 l 242 118 q 272 117 254 118 q 308 115 289 117 q 347 113 328 114 q 383 113 367 113 q 488 119 439 113 q 574 141 536 125 q 635 186 611 157 q 664 261 658 215 z "},"C":{"ha":974,"x_min":42,"x_max":932,"o":"m 925 286 q 840 142 897 207 q 701 35 783 76 q 497 -14 604 -14 q 369 3 431 -14 q 256 53 308 21 q 160 132 203 86 q 89 236 118 178 q 53 336 65 285 q 42 438 42 388 q 59 561 42 500 q 108 676 76 622 q 188 773 140 729 q 294 847 235 817 q 501 896 394 896 q 627 878 567 896 q 740 828 688 861 q 835 750 793 796 q 907 646 878 704 q 932 589 922 617 q 856 590 882 589 q 817 590 829 590 q 801 591 804 590 q 799 592 799 592 q 677 726 757 678 q 501 775 597 775 q 349 739 419 775 q 270 684 304 717 q 213 612 236 651 q 176 528 189 572 q 164 438 164 483 q 199 290 164 361 q 320 156 240 204 q 497 107 400 107 q 647 143 572 107 q 733 204 696 167 q 794 286 771 242 l 925 286 z "},"д":{"ha":871,"x_min":42,"x_max":829,"o":"m 708 113 q 726 111 717 111 q 743 111 735 111 q 776 112 760 111 q 803 114 792 113 q 829 117 817 115 l 785 -161 l 665 -161 l 683 -1 l 179 -1 l 200 -161 l 76 -161 l 42 113 l 133 124 q 167 210 158 158 q 181 318 175 263 l 181 325 q 211 447 186 382 q 288 567 236 513 q 423 659 340 622 q 626 696 506 696 l 708 696 l 708 113 m 586 121 l 586 575 q 470 554 521 575 q 383 498 419 533 q 326 415 347 463 q 301 314 306 368 q 290 217 297 268 q 267 122 282 167 l 586 121 z "},"ё":{"ha":793,"x_min":56,"x_max":744,"o":"m 324 790 q 275 809 294 790 q 256 856 256 828 q 275 902 256 883 q 324 921 294 921 q 372 902 351 921 q 392 856 392 883 q 372 809 392 828 q 324 790 351 790 m 549 790 q 501 809 521 790 q 481 856 481 828 q 501 902 481 883 q 549 921 521 921 q 598 902 578 921 q 618 856 618 883 q 598 809 618 828 q 549 790 578 790 m 731 72 q 617 10 682 38 q 468 -17 551 -17 q 342 3 400 -17 q 242 61 285 24 q 174 154 200 99 q 146 281 149 210 l 146 288 q 101 284 124 285 q 56 275 78 283 l 56 401 q 101 410 79 408 q 147 414 124 411 q 178 536 151 481 q 249 632 204 592 q 354 694 293 672 q 489 717 415 717 q 632 682 568 717 q 713 606 681 654 q 744 496 744 557 q 701 376 744 432 q 595 301 657 318 q 461 283 533 283 q 387 286 429 283 q 310 289 344 289 q 292 288 300 289 q 276 286 283 288 l 276 279 q 331 155 276 197 q 468 113 386 113 q 545 119 510 113 q 612 139 581 126 q 672 168 643 151 q 731 204 701 185 l 731 72 m 506 596 q 423 585 463 596 q 352 551 383 574 q 301 495 321 529 q 276 414 281 461 l 351 417 q 409 413 375 414 q 475 413 443 413 q 531 416 503 413 q 580 430 558 419 q 615 458 601 440 q 628 504 628 476 q 590 575 628 554 q 506 596 553 596 z "},"ж":{"ha":1114,"x_min":69,"x_max":1044,"o":"m 858 463 q 812 409 843 436 q 753 358 781 382 q 812 304 781 333 q 858 247 843 275 q 890 196 875 219 q 926 155 906 172 q 975 128 947 138 q 1044 118 1003 118 l 1044 -7 q 927 11 975 -7 q 846 58 879 29 q 790 119 813 86 q 750 183 768 153 q 722 231 735 210 q 695 267 710 251 q 663 290 681 282 q 619 301 644 299 l 619 1 l 496 1 l 496 301 q 453 291 471 300 q 420 267 435 282 q 392 231 406 253 q 363 183 378 210 q 324 119 346 153 q 268 58 301 86 q 186 11 235 29 q 69 -7 138 -7 l 69 118 q 139 128 111 118 q 188 155 167 138 q 224 196 208 172 q 256 247 239 219 q 303 304 271 275 q 363 358 335 333 q 305 410 336 382 q 258 464 274 438 q 226 513 242 490 q 191 552 211 536 q 142 577 171 568 q 72 586 114 586 l 72 711 q 188 694 140 711 q 268 649 235 676 q 324 590 301 622 q 364 529 347 558 q 392 484 379 504 q 420 450 406 464 q 453 427 435 436 q 496 417 471 418 l 496 690 l 619 690 l 619 417 q 696 450 671 422 q 747 521 721 478 l 751 528 q 792 588 769 557 q 847 647 814 619 q 928 691 881 674 q 1044 708 976 708 l 1044 583 q 974 574 1003 583 q 926 549 946 565 q 890 511 906 533 q 858 463 875 489 z "},"з":{"ha":704,"x_min":42,"x_max":663,"o":"m 533 386 q 592 362 568 379 q 632 322 617 344 q 655 274 647 299 q 663 229 663 250 q 636 122 663 168 q 567 44 610 75 q 469 -1 524 14 q 357 -17 414 -17 q 242 -1 299 -17 q 140 48 185 15 q 69 128 96 81 q 42 242 42 176 q 42 254 42 249 q 43 267 42 260 l 164 267 q 181 187 164 218 q 227 136 199 156 q 290 109 256 117 q 360 101 325 101 q 428 109 394 101 q 487 132 461 117 q 528 170 513 147 q 544 224 544 193 q 526 275 544 257 q 481 301 508 293 q 421 311 454 310 q 358 313 388 313 l 328 313 q 328 380 328 356 q 328 415 328 404 q 330 429 329 426 q 332 432 331 432 q 344 431 339 431 q 356 431 349 431 q 456 453 417 431 q 496 521 496 475 q 484 557 496 542 q 452 583 472 572 q 406 600 432 594 q 354 606 381 606 q 302 599 329 606 q 252 580 275 593 q 215 547 229 567 q 200 499 200 526 q 201 488 200 492 q 203 478 201 485 l 83 478 l 83 483 q 82 499 82 492 q 82 515 82 507 q 105 599 82 563 q 164 661 128 636 q 247 699 200 686 q 340 713 293 713 q 440 700 392 713 q 528 664 489 688 q 590 604 567 640 q 614 522 614 568 q 609 479 614 497 q 594 446 604 461 q 569 417 585 431 q 533 386 554 403 z "},"А":{"ha":924,"x_min":42,"x_max":882,"o":"m 532 874 q 683 496 613 671 q 743 345 713 421 q 801 203 774 269 q 849 83 828 136 q 882 1 871 31 l 753 1 q 694 151 724 76 q 633 304 664 225 q 538 318 586 318 q 466 313 501 318 q 394 301 431 307 l 288 285 l 172 1 l 42 1 l 157 290 q 106 303 133 294 q 53 325 79 311 l 53 464 q 131 424 94 438 q 203 406 168 410 l 392 874 l 532 874 m 371 419 q 374 420 374 419 q 378 421 375 421 q 453 434 414 428 q 532 440 492 440 q 556 440 543 440 q 579 438 568 439 l 571 464 l 464 729 l 336 414 q 353 417 344 417 q 371 419 363 417 z "},"Б":{"ha":849,"x_min":56,"x_max":793,"o":"m 701 485 q 793 285 793 400 q 775 186 793 231 q 660 47 740 97 q 468 -3 579 -3 l 135 -3 l 135 433 q 95 442 119 436 q 56 450 71 447 l 56 575 q 96 564 71 568 q 138 556 121 560 l 138 874 l 749 874 l 749 754 l 257 754 q 258 676 258 708 q 258 622 258 644 q 258 602 258 613 q 257 581 257 592 q 265 553 257 554 q 347 558 313 556 q 408 560 382 560 q 453 562 433 561 q 489 563 472 563 q 599 547 546 563 q 701 485 651 531 m 661 229 q 670 260 668 244 q 672 290 672 275 q 659 348 672 324 q 619 396 646 372 q 560 429 592 421 q 492 438 529 438 q 460 437 476 438 q 419 435 444 436 q 354 433 393 435 q 257 428 315 431 l 257 117 l 468 117 q 591 146 540 117 q 661 229 642 175 z "},"В":{"ha":839,"x_min":42,"x_max":783,"o":"m 647 482 q 750 398 717 454 q 783 275 783 342 q 752 139 783 192 q 669 56 721 86 q 550 13 617 25 q 411 1 483 1 l 124 1 l 124 735 l 93 735 q 69 738 82 735 q 42 746 57 742 l 42 861 q 73 856 56 858 q 107 853 90 853 q 167 857 138 853 q 228 861 197 861 q 314 871 271 867 q 404 875 357 875 q 511 865 458 875 q 606 831 564 856 q 675 761 649 806 q 701 647 701 717 q 686 570 701 600 q 653 519 671 540 l 615 494 l 647 482 m 664 261 q 640 338 664 307 q 578 388 615 369 q 498 413 542 406 q 414 421 454 421 l 349 421 l 349 539 l 414 539 q 503 556 467 543 q 565 596 540 568 q 578 615 572 603 q 585 650 585 628 q 583 658 585 654 q 582 669 582 663 q 562 712 578 694 q 523 739 546 729 q 472 753 500 749 q 413 757 443 757 q 319 751 361 757 q 242 743 276 744 l 242 118 q 272 117 254 118 q 308 115 289 117 q 347 113 328 114 q 383 113 367 113 q 488 119 439 113 q 574 141 536 125 q 635 186 611 157 q 664 261 658 215 z "},"Г":{"ha":715,"x_min":69,"x_max":688,"o":"m 688 872 q 660 767 688 806 q 607 711 633 728 q 528 678 572 688 q 436 668 485 668 q 310 681 374 668 q 193 711 246 693 l 193 -1 l 69 -1 l 69 875 q 122 863 93 871 q 176 844 150 856 q 306 804 238 819 q 433 789 375 789 q 492 794 465 789 q 538 811 519 799 q 558 831 549 818 q 567 872 567 844 l 688 872 z "},"и":{"ha":807,"x_min":97,"x_max":710,"o":"m 710 694 l 710 0 l 585 0 l 585 486 l 214 -1 l 97 -1 l 97 694 l 222 694 l 222 208 l 593 694 l 710 694 z "},"й":{"ha":807,"x_min":97,"x_max":710,"o":"m 571 794 q 534 804 551 801 q 501 807 517 807 q 465 804 482 807 q 425 797 449 801 q 381 788 403 792 q 335 783 358 783 q 257 797 297 783 l 257 915 q 297 898 278 903 q 335 893 315 893 q 369 897 351 893 q 407 904 388 900 q 451 915 428 911 q 499 918 474 918 q 534 916 517 918 q 571 907 551 914 l 571 794 m 710 694 l 710 0 l 585 0 l 585 486 l 214 -1 l 97 -1 l 97 694 l 222 694 l 222 208 l 593 694 l 710 694 z "},"к":{"ha":711,"x_min":83,"x_max":663,"o":"m 422 382 q 452 372 432 379 q 496 349 472 365 q 544 306 519 332 q 588 238 568 279 q 622 138 608 196 q 636 0 635 79 l 508 0 q 486 149 508 93 q 424 235 464 206 q 331 275 385 265 q 211 285 276 285 l 211 1 l 83 1 l 83 696 l 211 696 l 211 417 q 249 418 231 417 q 288 417 268 419 l 503 696 l 663 696 l 422 382 z "},"л":{"ha":779,"x_min":42,"x_max":682,"o":"m 682 694 l 682 1 l 558 1 l 558 571 q 509 569 538 571 q 451 563 481 568 q 396 549 422 558 q 353 524 369 539 q 292 321 292 464 q 269 144 292 210 q 210 44 246 79 q 129 -3 174 8 q 42 -14 85 -14 l 42 111 q 86 115 64 111 q 126 138 108 118 q 156 201 144 158 q 167 321 167 243 q 267 614 167 518 q 335 656 296 640 q 415 681 374 672 q 493 692 456 689 q 557 694 531 694 l 682 694 z "},"м":{"ha":975,"x_min":83,"x_max":892,"o":"m 892 699 l 892 -1 l 771 -1 l 771 550 q 742 492 756 526 q 717 431 729 458 q 675 342 696 385 q 628 266 654 299 q 567 213 601 233 q 486 193 533 193 q 404 215 439 193 q 343 270 369 236 q 297 347 317 304 q 258 431 276 389 q 233 492 246 458 q 204 549 219 525 l 204 -1 l 83 -1 l 83 700 l 221 700 q 267 661 247 685 q 301 609 286 638 q 330 550 317 581 q 356 489 343 519 q 423 363 392 408 q 486 314 454 317 q 551 361 519 317 q 618 486 582 406 q 644 548 631 517 q 673 608 657 579 q 708 660 689 636 q 754 700 728 685 l 892 699 z "},"н":{"ha":806,"x_min":97,"x_max":708,"o":"m 708 697 l 708 -1 l 581 -1 l 581 294 l 224 294 l 224 -1 l 97 -1 l 97 697 l 224 697 l 224 424 l 581 424 l 581 697 l 708 697 z "},"о":{"ha":794,"x_min":28,"x_max":767,"o":"m 399 -15 q 255 14 322 -15 q 137 93 188 43 q 57 210 86 143 q 28 351 28 276 q 57 494 28 428 q 137 611 86 561 q 255 690 188 661 q 399 719 322 719 q 541 690 474 719 q 658 611 608 661 q 738 494 708 561 q 767 351 767 428 q 738 210 767 276 q 658 93 708 143 q 541 14 608 43 q 399 -15 474 -15 m 399 589 q 304 570 349 589 q 227 519 260 551 q 175 444 194 488 q 156 351 156 401 q 175 258 156 301 q 227 183 194 215 q 304 131 260 150 q 399 113 349 113 q 492 131 449 113 q 569 183 536 150 q 620 258 601 215 q 639 351 639 301 q 620 444 639 401 q 569 519 601 488 q 492 570 536 551 q 399 589 449 589 m 399 -15 q 255 14 322 -15 q 137 93 188 43 q 57 210 86 143 q 28 351 28 276 q 57 494 28 428 q 137 611 86 561 q 255 690 188 661 q 399 719 322 719 q 541 690 474 719 q 658 611 608 661 q 738 494 708 561 q 767 351 767 428 q 738 210 767 276 q 658 93 708 143 q 541 14 608 43 q 399 -15 474 -15 m 399 589 q 304 570 349 589 q 227 519 260 551 q 175 444 194 488 q 156 351 156 401 q 175 258 156 301 q 227 183 194 215 q 304 131 260 150 q 399 113 349 113 q 492 131 449 113 q 569 183 536 150 q 620 258 601 215 q 639 351 639 301 q 620 444 639 401 q 569 519 601 488 q 492 570 536 551 q 399 589 449 589 z "},"п":{"ha":807,"x_min":97,"x_max":710,"o":"m 710 697 l 710 -1 l 582 -1 l 582 571 l 224 571 l 224 -1 l 97 -1 l 97 697 l 710 697 z "},"р":{"ha":768,"x_min":83,"x_max":699,"o":"m 347 711 q 493 684 428 711 q 604 608 558 657 q 674 494 650 560 q 699 349 699 428 q 676 217 699 282 q 608 100 653 151 q 499 17 564 49 q 350 -15 435 -15 q 276 -12 315 -15 q 213 -3 236 -8 l 213 -240 l 83 -240 l 83 642 q 151 674 115 661 q 221 696 186 688 q 288 708 256 704 q 347 711 321 711 m 579 369 q 556 466 579 425 q 497 533 533 507 q 415 571 461 558 q 321 583 368 583 q 213 564 268 583 l 213 128 q 267 120 236 122 q 321 118 297 118 q 428 133 381 118 q 510 178 476 147 q 561 256 543 208 q 579 369 579 303 z "},"с":{"ha":772,"x_min":28,"x_max":744,"o":"m 739 231 q 685 131 719 176 q 606 53 651 86 q 505 3 560 21 q 392 -15 450 -15 q 252 13 318 -15 q 136 90 186 42 q 57 206 86 139 q 28 347 28 272 q 57 488 28 421 q 136 605 86 554 q 253 685 186 656 q 396 715 319 715 q 510 697 456 715 q 610 644 565 678 q 689 565 654 611 q 744 463 724 518 l 606 463 q 519 554 575 521 q 396 588 463 588 q 305 569 349 588 q 228 518 261 550 q 174 442 194 486 q 154 347 154 397 q 172 258 154 301 q 223 183 190 215 q 299 131 256 150 q 392 111 342 111 q 512 144 454 111 q 601 231 569 176 l 739 231 z "},"т":{"ha":722,"x_min":56,"x_max":667,"o":"m 667 571 l 419 571 l 419 -1 l 290 -1 l 290 571 l 56 571 l 56 697 l 667 697 l 667 571 z "},"у":{"ha":743,"x_min":56,"x_max":688,"o":"m 688 696 q 616 535 646 626 q 556 349 586 444 q 492 161 526 253 q 405 -3 457 69 q 278 -121 353 -76 q 93 -165 203 -165 l 69 -165 l 69 -46 q 176 -35 133 -46 q 250 -2 219 -24 q 303 50 281 19 q 347 121 325 81 l 56 696 l 188 696 l 411 261 q 442 367 428 314 q 475 473 457 419 q 515 582 493 526 q 569 696 538 638 l 688 696 z "},"ф":{"ha":1050,"x_min":28,"x_max":1022,"o":"m 790 653 q 884 604 842 636 q 957 528 926 572 q 1005 433 988 485 q 1022 326 1022 381 q 997 194 1022 257 q 925 81 971 131 q 817 3 879 32 q 682 -26 754 -26 q 631 -22 656 -26 q 583 -11 607 -18 l 583 -242 l 463 -242 l 463 -12 q 416 -23 440 -19 q 368 -26 392 -26 q 238 1 300 -26 q 130 77 176 29 q 56 190 83 125 q 28 326 28 254 q 44 429 28 378 q 90 524 60 481 q 163 602 121 568 q 260 654 206 636 q 354 669 306 669 q 407 665 381 669 q 463 654 433 661 l 463 833 l 583 833 l 583 653 q 685 668 633 668 q 790 653 732 668 m 149 324 q 165 239 149 279 q 211 168 182 199 q 281 119 240 138 q 367 100 321 100 q 463 119 418 100 l 463 522 q 363 547 414 547 q 281 529 319 547 q 213 481 242 511 q 166 409 183 450 q 149 324 149 368 m 682 99 q 765 117 725 99 q 835 165 806 135 q 883 237 865 196 q 901 324 901 278 q 886 404 901 364 q 843 476 871 444 q 776 528 815 508 q 688 547 736 547 q 633 539 657 547 q 583 521 608 531 l 583 121 q 682 99 626 99 z "},"х":{"ha":811,"x_min":56,"x_max":756,"o":"m 329 354 l 64 694 l 219 694 l 406 454 l 592 694 l 747 694 l 485 354 l 756 -1 l 603 -1 l 406 254 l 208 -1 l 56 -1 l 329 354 z "},"ц":{"ha":804,"x_min":83,"x_max":763,"o":"m 697 47 q 747 -40 731 15 q 763 -161 763 -94 l 639 -161 q 635 -106 639 -131 q 619 -63 631 -81 q 587 -37 608 -46 q 531 -28 565 -28 q 423 -35 482 -28 q 307 -43 364 -43 q 197 -32 253 -43 q 83 4 142 -21 l 83 694 l 207 694 l 207 96 q 258 86 232 90 q 308 82 283 82 q 402 89 350 82 q 503 97 454 96 l 503 694 l 628 694 l 628 86 q 697 47 669 74 z "},"ч":{"ha":724,"x_min":42,"x_max":626,"o":"m 626 694 l 626 0 l 507 0 l 507 296 q 438 238 476 254 q 357 221 399 221 q 259 240 301 221 q 188 292 217 258 q 145 370 160 325 q 131 469 131 415 l 131 522 q 113 567 131 550 q 47 588 96 585 l 42 588 l 42 708 q 119 700 83 708 q 182 672 156 692 q 224 619 208 651 q 239 539 239 586 l 239 472 q 247 429 239 451 q 271 390 256 407 q 308 361 286 372 q 357 350 329 350 q 412 363 386 350 q 457 397 438 375 q 490 447 476 418 q 507 508 503 475 l 507 694 l 626 694 z "},"ш":{"ha":1046,"x_min":97,"x_max":949,"o":"m 949 0 l 97 0 l 97 697 l 224 697 l 224 125 l 465 125 l 465 697 l 593 697 l 593 125 l 822 125 l 822 697 l 949 697 l 949 0 z "},"щ":{"ha":1096,"x_min":97,"x_max":1054,"o":"m 926 99 q 993 58 968 83 q 1031 -3 1018 32 q 1049 -78 1044 -37 q 1054 -162 1053 -119 l 932 -162 q 931 -128 932 -149 q 926 -87 929 -107 q 918 -51 922 -67 q 908 -29 914 -35 q 869 -12 894 -17 q 813 -7 844 -7 q 706 -12 758 -7 q 601 -26 653 -18 q 494 -39 549 -33 q 383 -44 440 -44 q 242 -35 314 -44 q 99 -1 171 -25 q 99 147 99 79 q 98 279 99 215 q 97 406 97 343 q 97 540 97 469 l 97 694 l 219 694 l 219 93 q 301 82 260 86 q 382 78 342 78 q 457 82 419 78 l 457 694 l 579 694 l 579 93 q 688 104 633 97 q 804 113 743 111 l 804 694 l 926 694 l 926 99 l 926 99 z "},"ъ":{"ha":885,"x_min":42,"x_max":801,"o":"m 511 510 q 618 494 565 510 q 711 447 671 478 q 776 367 751 415 q 801 254 801 318 q 778 134 801 185 q 713 50 754 83 q 613 1 671 17 q 488 -15 556 -15 q 372 -8 435 -15 q 236 18 310 0 l 236 482 q 226 522 236 507 q 201 545 217 538 q 167 556 186 553 q 128 558 147 558 l 42 558 l 42 696 l 186 696 q 256 679 224 696 q 314 635 289 663 q 353 573 339 608 q 367 501 367 538 l 367 488 q 511 510 439 510 m 489 114 q 557 120 524 114 q 616 142 590 126 q 657 185 642 158 q 672 254 672 213 q 659 312 672 288 q 623 351 646 336 q 570 374 600 367 q 507 381 540 381 q 367 350 443 381 l 367 125 q 433 116 403 118 q 489 114 464 114 z "},"я":{"ha":729,"x_min":69,"x_max":660,"o":"m 660 585 q 628 574 640 575 q 601 572 617 574 l 601 4 l 475 4 l 475 231 q 381 136 422 181 q 295 58 339 92 q 198 5 251 25 q 69 -18 144 -15 l 69 107 q 147 119 113 107 q 211 151 182 132 q 265 197 240 171 q 315 249 290 222 q 324 259 321 254 q 333 267 328 264 q 249 288 290 272 q 176 330 208 304 q 124 393 143 356 q 104 479 104 431 q 151 611 104 554 q 278 689 199 668 q 388 703 329 703 q 470 699 428 703 q 557 696 513 696 q 613 697 586 696 q 660 707 640 699 l 660 585 m 476 574 q 418 576 443 576 q 376 576 393 576 q 327 573 354 576 q 276 558 300 569 q 237 528 253 547 q 221 478 221 508 q 244 422 221 443 q 300 390 267 401 q 372 376 333 379 q 439 372 410 372 q 460 373 450 372 q 476 374 469 374 l 476 574 z "},".":{"ha":247,"x_min":56,"x_max":192,"o":"m 124 0 q 75 19 94 0 q 56 65 56 38 q 75 112 56 93 q 124 131 94 131 q 172 112 151 131 q 192 65 192 93 q 172 19 192 38 q 124 0 151 0 z "},",":{"ha":313,"x_min":42,"x_max":257,"o":"m 42 -192 l 42 -86 q 94 -72 74 -85 q 128 -40 115 -60 q 145 6 140 -19 q 150 58 150 31 l 150 160 l 257 160 l 257 89 q 255 33 257 63 q 246 -27 253 3 q 226 -85 239 -57 q 192 -135 214 -112 q 42 -192 135 -192 z "},"-":{"ha":614,"x_min":97,"x_max":517,"o":"m 517 444 l 517 317 l 97 317 l 97 444 l 517 444 z "},"!":{"ha":275,"x_min":69,"x_max":206,"o":"m 79 867 l 194 867 l 194 221 l 79 221 l 79 867 m 138 0 q 89 19 108 0 q 69 65 69 38 q 89 112 69 93 q 138 131 108 131 q 185 112 165 131 q 206 65 206 93 q 185 19 206 38 q 138 0 165 0 z "},"+":{"ha":558,"x_min":69,"x_max":489,"o":"m 489 432 l 489 317 l 69 317 l 69 432 l 489 432 m 221 583 l 336 583 l 336 164 l 221 164 l 221 583 z "},":":{"ha":247,"x_min":56,"x_max":192,"o":"m 124 0 q 75 19 94 0 q 56 65 56 38 q 75 112 56 93 q 124 131 94 131 q 172 112 151 131 q 192 65 192 93 q 172 19 192 38 q 124 0 151 0 m 124 486 q 75 505 94 486 q 56 551 56 524 q 75 598 56 579 q 124 617 94 617 q 172 598 151 617 q 192 551 192 579 q 172 505 192 524 q 124 486 151 486 z "},";":{"ha":329,"x_min":42,"x_max":274,"o":"m 206 486 q 157 505 176 486 q 138 551 138 524 q 157 598 138 579 q 206 617 176 617 q 253 598 233 617 q 274 551 274 579 q 253 505 274 524 q 206 486 233 486 m 42 -192 l 42 -86 q 94 -72 74 -85 q 128 -40 115 -60 q 145 6 140 -19 q 150 58 150 31 l 150 160 l 257 160 l 257 89 q 255 33 257 63 q 246 -27 253 3 q 226 -85 239 -57 q 192 -135 214 -112 q 42 -192 135 -192 z "},"=":{"ha":558,"x_min":69,"x_max":489,"o":"m 489 317 l 489 201 l 69 201 l 69 317 l 489 317 m 489 522 l 489 407 l 69 407 l 69 522 l 489 522 z "},"(":{"ha":321,"x_min":56,"x_max":265,"o":"m 142 -164 q 78 76 100 -60 q 56 364 56 213 q 77 644 56 514 q 139 874 99 774 l 265 874 q 227 773 244 829 q 197 651 210 717 q 178 513 185 586 q 172 364 172 440 q 197 71 172 210 q 265 -164 222 -68 l 142 -164 z "},")":{"ha":321,"x_min":56,"x_max":265,"o":"m 56 -164 q 124 71 99 -68 q 149 364 149 210 q 142 513 149 440 q 124 651 136 586 q 94 773 111 717 q 56 874 76 829 l 182 874 q 244 644 222 774 q 265 364 265 514 q 243 76 265 213 q 179 -164 221 -60 l 56 -164 z "},"ы":{"ha":999,"x_min":83,"x_max":915,"o":"m 915 694 l 915 -1 l 786 -1 l 786 694 l 915 694 m 357 510 q 464 494 411 510 q 557 447 517 478 q 622 367 597 415 q 647 254 647 318 q 624 134 647 185 q 558 50 600 83 q 459 1 517 17 q 333 -15 401 -15 q 218 -8 281 -15 q 83 18 156 0 l 83 697 l 213 697 l 213 488 q 357 510 285 510 m 335 114 q 403 120 369 114 q 462 142 436 126 q 503 185 488 158 q 518 254 518 213 q 505 312 518 288 q 469 351 492 336 q 416 374 446 367 q 353 381 386 381 q 213 350 289 381 l 213 125 q 279 116 249 118 q 335 114 310 114 z "},"ь":{"ha":731,"x_min":83,"x_max":647,"o":"m 357 510 q 464 494 411 510 q 557 447 517 478 q 622 367 597 415 q 647 254 647 318 q 624 134 647 185 q 558 50 600 83 q 459 1 517 17 q 333 -15 401 -15 q 218 -8 281 -15 q 83 18 156 0 l 83 697 l 213 697 l 213 488 q 357 510 285 510 m 335 114 q 403 120 369 114 q 462 142 436 126 q 503 185 488 158 q 518 254 518 213 q 505 312 518 288 q 469 351 492 336 q 416 374 446 367 q 353 381 386 381 q 213 350 289 381 l 213 125 q 279 116 249 118 q 335 114 310 114 z "},"ю":{"ha":1051,"x_min":83,"x_max":1024,"o":"m 651 719 q 796 691 728 719 q 915 613 864 663 q 994 495 965 563 q 1024 351 1024 428 q 994 208 1024 275 q 915 92 965 142 q 796 13 864 42 q 651 -17 728 -17 q 521 7 582 -17 q 410 72 460 31 q 328 170 361 114 q 286 292 296 226 l 206 292 l 206 1 l 83 1 l 83 694 l 206 694 l 206 414 l 286 414 q 328 535 296 479 q 410 631 361 590 q 521 696 460 672 q 651 719 582 719 m 651 106 q 748 125 703 106 q 827 178 793 144 q 881 256 861 211 q 900 351 900 301 q 881 448 900 403 q 827 526 861 493 q 748 578 793 560 q 651 597 703 597 q 555 578 600 597 q 476 526 510 560 q 422 448 442 493 q 403 351 403 403 q 422 256 403 301 q 476 178 442 211 q 555 125 510 144 q 651 106 600 106 z "},"э":{"ha":767,"x_min":28,"x_max":739,"o":"m 379 721 q 508 693 443 721 q 624 615 572 665 q 707 497 675 565 q 739 344 739 428 q 713 206 739 272 q 638 90 686 140 q 525 11 590 40 q 382 -18 460 -18 q 272 -1 325 -18 q 174 49 219 17 q 92 128 128 82 q 31 231 56 174 l 172 231 q 258 143 201 176 q 382 110 315 110 q 509 146 451 110 q 597 243 567 182 q 609 271 604 258 q 617 297 614 283 q 574 303 596 304 q 531 297 553 301 q 488 289 510 293 q 442 285 465 285 q 396 292 419 285 q 346 306 372 299 l 346 424 q 401 408 378 414 q 444 401 425 401 q 528 410 483 401 q 615 415 572 419 q 587 485 608 453 q 533 541 565 517 q 460 579 500 565 q 379 593 421 593 q 254 559 311 593 q 165 467 197 525 l 28 467 q 49 518 35 494 q 185 666 97 611 q 379 721 272 721 z "},"ї":{"ha":1157,"x_min":0,"x_max":0,"o":""},"а":{"ha":790,"x_min":49,"x_max":749,"o":"m 663 285 q 663 181 663 232 q 662 91 663 131 q 661 27 661 51 q 661 1 661 3 l 533 1 l 533 75 q 436 4 493 25 q 319 -17 379 -17 q 222 -2 271 -17 q 135 42 174 13 q 72 115 96 71 q 49 217 49 158 q 69 319 49 276 q 124 390 89 363 q 208 429 160 417 q 313 442 256 442 q 419 433 363 442 q 533 407 475 425 l 533 413 q 536 432 536 424 q 536 450 536 440 q 522 515 536 488 q 483 561 507 543 q 430 588 460 579 q 368 597 400 597 q 308 590 338 597 q 256 568 279 583 q 217 530 232 553 q 200 475 201 507 l 72 475 q 102 582 76 536 q 167 658 128 628 q 257 703 207 688 q 360 718 307 718 q 475 701 421 718 q 570 649 529 685 q 635 556 611 613 q 661 419 660 500 l 661 413 q 703 419 682 415 q 749 429 725 424 l 749 299 l 663 285 m 535 282 q 505 288 526 282 q 455 299 483 293 q 394 311 426 306 q 331 317 361 317 q 280 312 307 317 q 230 294 253 307 q 192 263 207 282 q 176 214 176 243 q 190 171 176 190 q 225 137 203 151 q 276 114 247 122 q 339 106 306 106 q 413 119 378 106 q 474 151 447 132 q 517 193 501 171 q 535 233 533 215 l 535 282 z "},"е":{"ha":793,"x_min":56,"x_max":744,"o":"m 731 72 q 617 10 682 38 q 468 -17 551 -17 q 342 3 400 -17 q 242 61 285 24 q 174 154 200 99 q 146 281 149 210 l 146 288 q 101 284 124 285 q 56 275 78 283 l 56 401 q 101 410 79 408 q 147 414 124 411 q 178 536 151 481 q 249 632 204 592 q 354 694 293 672 q 489 717 415 717 q 632 682 568 717 q 713 606 681 654 q 744 496 744 557 q 701 376 744 432 q 595 301 657 318 q 461 283 533 283 q 387 286 429 283 q 310 289 344 289 q 292 288 300 289 q 276 286 283 288 l 276 279 q 331 155 276 197 q 468 113 386 113 q 545 119 510 113 q 612 139 581 126 q 672 168 643 151 q 731 204 701 185 l 731 72 m 506 596 q 423 585 463 596 q 352 551 383 574 q 301 495 321 529 q 276 414 281 461 l 351 417 q 409 413 375 414 q 475 413 443 413 q 531 416 503 413 q 580 430 558 419 q 615 458 601 440 q 628 504 628 476 q 590 575 628 554 q 506 596 553 596 z "},"k":{"ha":718,"x_min":83,"x_max":663,"o":"m 422 382 q 452 372 432 379 q 496 349 472 365 q 544 306 519 332 q 588 238 568 279 q 622 138 608 196 q 636 0 635 79 l 508 0 q 486 149 508 93 q 424 235 464 206 q 331 275 385 265 q 211 285 276 285 l 211 1 l 83 1 l 83 893 l 211 893 l 211 417 q 249 418 231 417 q 288 417 268 419 l 503 696 l 663 696 l 422 382 z "},"E":{"ha":775,"x_min":83,"x_max":692,"o":"m 692 0 l 83 0 l 83 872 l 668 872 l 668 749 l 206 749 l 206 506 q 278 492 243 492 q 364 506 324 492 q 446 519 404 519 q 511 504 481 519 l 511 376 q 443 389 475 389 q 360 378 400 389 q 274 367 319 367 q 206 376 240 367 l 206 122 l 692 122 l 692 0 z "},"F":{"ha":710,"x_min":83,"x_max":668,"o":"m 83 0 l 83 872 l 668 872 l 668 749 l 206 749 l 206 506 q 278 492 243 492 q 364 506 324 492 q 446 519 404 519 q 511 504 481 519 l 511 376 q 443 389 475 389 q 360 378 400 389 q 274 367 319 367 q 206 376 240 367 l 206 0 l 83 0 z "},"G":{"ha":985,"x_min":42,"x_max":943,"o":"m 797 286 q 774 282 785 282 q 745 287 760 282 q 715 297 731 292 q 681 306 699 301 q 642 311 663 311 q 601 306 622 311 q 557 290 581 301 l 557 419 q 631 435 592 435 q 685 429 657 435 q 740 417 713 424 q 797 404 768 410 q 856 399 825 399 q 898 402 876 399 q 943 415 919 406 q 906 233 943 313 q 808 98 869 153 q 665 15 746 43 q 497 -14 585 -14 q 369 3 431 -14 q 256 53 308 21 q 160 132 203 86 q 89 236 118 178 q 53 336 65 285 q 42 438 42 388 q 59 561 42 500 q 108 676 76 622 q 188 773 140 729 q 294 847 235 817 q 501 896 394 896 q 627 878 567 896 q 740 828 688 861 q 835 750 793 796 q 907 646 878 704 q 932 589 922 617 q 856 590 882 589 q 817 590 829 590 q 801 591 804 590 q 799 592 799 592 q 677 726 757 678 q 501 775 597 775 q 349 739 419 775 q 270 684 304 717 q 213 612 236 651 q 176 528 189 572 q 164 438 164 483 q 199 290 164 361 q 320 156 240 204 q 497 107 400 107 q 588 118 543 107 q 672 151 632 129 q 744 208 711 174 q 797 286 776 242 z "},"H":{"ha":915,"x_min":83,"x_max":832,"o":"m 832 874 l 832 0 l 711 0 l 711 389 l 204 389 l 204 0 l 83 0 l 83 874 l 204 874 l 204 511 l 711 511 l 711 874 l 832 874 z "},"K":{"ha":925,"x_min":56,"x_max":842,"o":"m 617 289 q 665 195 642 238 q 713 122 688 153 q 769 75 739 92 q 842 58 800 58 l 842 -62 q 719 -35 771 -62 q 628 36 667 -7 q 560 132 589 79 q 507 235 532 185 q 483 284 496 260 q 457 332 471 308 q 415 306 436 317 q 374 290 394 296 q 337 281 358 283 q 301 275 315 278 l 301 0 l 181 0 l 181 276 q 147 288 161 281 q 121 306 132 296 q 72 365 89 329 q 56 440 56 400 l 56 449 q 83 533 58 494 q 147 592 107 571 q 163 599 154 594 q 185 606 172 603 l 185 874 l 304 874 l 304 600 q 356 584 325 594 q 413 557 388 574 q 446 534 431 546 q 476 508 461 522 q 503 540 490 524 q 531 575 517 557 q 610 726 583 649 q 638 872 638 803 l 758 872 q 725 690 758 783 q 629 506 692 596 q 590 455 610 479 q 550 410 571 431 q 585 350 569 381 q 617 289 601 319 m 239 379 q 277 383 256 379 q 320 394 299 388 q 363 410 342 401 q 397 428 383 419 q 322 474 368 454 q 233 494 275 494 q 192 478 208 494 q 176 436 176 461 q 178 422 176 431 q 185 403 179 413 q 204 388 192 394 q 239 379 217 381 z "},"M":{"ha":1114,"x_min":83,"x_max":1031,"o":"m 1031 872 l 1031 1 l 911 1 l 911 733 q 863 673 885 710 q 818 596 840 636 q 769 499 793 547 q 715 414 744 451 q 647 353 685 376 q 554 331 608 331 q 463 353 500 331 q 397 412 425 375 q 346 494 368 449 q 300 588 324 540 q 253 670 276 632 q 203 733 231 708 l 203 1 l 83 1 l 83 872 l 200 872 q 272 833 240 858 q 328 774 303 807 q 373 705 353 742 q 413 632 393 668 q 449 556 433 590 q 479 499 464 522 q 512 464 494 476 q 554 451 529 451 q 599 464 581 451 q 633 499 617 476 q 665 556 649 522 q 701 632 681 590 q 740 705 719 668 q 786 774 761 742 q 842 833 811 807 q 914 872 874 858 l 1031 872 z "},"N":{"ha":915,"x_min":83,"x_max":832,"o":"m 200 874 l 710 215 l 710 874 l 832 874 l 832 -3 l 719 -3 l 206 668 l 206 -3 l 83 -3 l 83 874 l 200 874 z "},"I":{"ha":288,"x_min":83,"x_max":204,"o":"m 204 0 l 83 0 l 83 874 l 204 874 l 204 0 z "},"Y":{"ha":776,"x_min":42,"x_max":735,"o":"m 381 414 l 388 392 l 394 414 l 608 874 l 735 874 l 449 265 l 449 0 l 325 0 l 325 265 l 42 874 l 168 874 l 381 414 z "},"R":{"ha":847,"x_min":56,"x_max":819,"o":"m 56 478 q 85 563 58 524 q 154 619 113 603 q 164 622 160 622 l 164 872 q 231 878 193 876 q 303 881 269 881 q 453 867 378 881 q 590 821 529 853 q 688 735 650 789 q 726 600 726 681 q 678 432 726 499 q 535 326 631 365 q 591 231 561 279 q 656 145 621 183 q 731 83 690 107 q 819 58 771 58 l 819 -60 q 681 -26 744 -60 q 567 58 618 7 q 474 172 515 110 q 403 293 433 235 q 372 288 393 290 q 294 283 350 286 q 288 283 292 283 q 282 282 285 282 l 282 1 l 164 1 l 164 308 q 140 324 149 315 q 119 343 131 332 q 72 406 88 371 q 56 478 56 442 m 386 544 q 424 496 406 525 q 464 432 443 467 q 576 504 546 461 q 607 590 607 547 q 573 684 607 650 q 490 735 539 718 q 385 755 440 751 q 285 758 329 758 q 283 740 283 756 q 283 698 283 726 q 282 617 282 669 q 332 590 306 607 q 386 544 358 572 m 354 401 q 329 440 344 419 q 295 480 314 461 q 255 511 276 499 q 211 524 233 524 q 176 508 192 524 q 161 476 161 492 q 176 440 161 454 q 213 416 192 425 q 257 403 235 407 q 293 400 279 400 l 354 401 z "},"P":{"ha":864,"x_min":56,"x_max":794,"o":"m 482 881 q 717 782 640 871 q 794 542 794 693 q 767 426 794 479 q 694 332 740 372 q 585 269 647 292 q 456 246 524 246 l 264 246 l 264 0 l 142 0 l 142 735 q 97 739 118 736 q 56 750 76 742 l 56 867 q 113 857 83 860 q 168 854 143 854 q 238 858 204 854 q 307 867 272 863 q 378 877 343 874 q 453 881 413 881 l 482 881 m 685 549 q 678 623 685 586 q 649 689 671 660 q 585 738 626 718 q 474 761 543 757 q 381 758 435 761 q 264 740 328 756 l 264 367 l 456 367 q 542 379 501 367 q 613 416 582 392 q 663 474 644 440 q 685 549 682 507 z "},"O":{"ha":994,"x_min":42,"x_max":953,"o":"m 496 -15 q 319 20 401 -15 q 175 117 236 56 q 78 261 114 179 q 42 438 42 343 q 78 613 42 531 q 175 756 114 694 q 319 853 236 818 q 496 889 401 889 q 674 853 590 889 q 819 756 757 818 q 917 613 881 694 q 953 438 953 531 q 917 261 953 343 q 819 117 881 179 q 674 20 757 56 q 496 -15 590 -15 m 496 768 q 366 742 426 768 q 260 671 306 715 q 189 566 215 626 q 163 438 163 506 q 189 308 163 368 q 260 203 215 247 q 366 132 306 158 q 496 106 426 106 q 628 132 567 106 q 734 203 689 158 q 805 308 779 247 q 831 438 831 368 q 805 566 831 506 q 734 671 779 626 q 628 742 689 715 q 496 768 567 768 z "},"T":{"ha":886,"x_min":28,"x_max":858,"o":"m 858 872 q 844 787 857 826 q 806 717 831 747 q 742 670 781 688 q 654 653 704 653 q 494 683 578 653 l 494 0 l 376 0 l 376 732 q 311 750 346 743 q 243 757 276 757 q 177 744 207 757 q 146 689 147 732 l 28 689 q 45 769 28 735 q 92 827 63 804 q 160 862 121 850 q 246 874 200 874 q 370 858 315 874 q 472 822 425 842 q 562 787 518 803 q 653 771 606 771 q 696 776 679 771 q 722 794 713 782 q 734 825 731 806 q 739 872 738 844 l 858 872 z "},"Х":{"ha":901,"x_min":28,"x_max":874,"o":"m 525 444 l 874 -1 l 721 -1 l 450 347 l 178 -1 l 28 -1 l 375 444 l 42 874 l 192 874 l 450 542 l 710 874 l 860 874 l 525 444 z "},"ą":{"ha":1157,"x_min":0,"x_max":0,"o":""},"a":{"ha":790,"x_min":49,"x_max":749,"o":"m 663 285 q 663 181 663 232 q 662 91 663 131 q 661 27 661 51 q 661 1 661 3 l 533 1 l 533 75 q 436 4 493 25 q 319 -17 379 -17 q 222 -2 271 -17 q 135 42 174 13 q 72 115 96 71 q 49 217 49 158 q 69 319 49 276 q 124 390 89 363 q 208 429 160 417 q 313 442 256 442 q 419 433 363 442 q 533 407 475 425 l 533 413 q 536 432 536 424 q 536 450 536 440 q 522 515 536 488 q 483 561 507 543 q 430 588 460 579 q 368 597 400 597 q 308 590 338 597 q 256 568 279 583 q 217 530 232 553 q 200 475 201 507 l 72 475 q 102 582 76 536 q 167 658 128 628 q 257 703 207 688 q 360 718 307 718 q 475 701 421 718 q 570 649 529 685 q 635 556 611 613 q 661 419 660 500 l 661 413 q 703 419 682 415 q 749 429 725 424 l 749 299 l 663 285 m 535 282 q 505 288 526 282 q 455 299 483 293 q 394 311 426 306 q 331 317 361 317 q 280 312 307 317 q 230 294 253 307 q 192 263 207 282 q 176 214 176 243 q 190 171 176 190 q 225 137 203 151 q 276 114 247 122 q 339 106 306 106 q 413 119 378 106 q 474 151 447 132 q 517 193 501 171 q 535 233 533 215 l 535 282 z "},"â":{"ha":1157,"x_min":0,"x_max":0,"o":""},"c":{"ha":772,"x_min":28,"x_max":744,"o":"m 739 231 q 685 131 719 176 q 606 53 651 86 q 505 3 560 21 q 392 -15 450 -15 q 252 13 318 -15 q 136 90 186 42 q 57 206 86 139 q 28 347 28 272 q 57 488 28 421 q 136 605 86 554 q 253 685 186 656 q 396 715 319 715 q 510 697 456 715 q 610 644 565 678 q 689 565 654 611 q 744 463 724 518 l 606 463 q 519 554 575 521 q 396 588 463 588 q 305 569 349 588 q 228 518 261 550 q 174 442 194 486 q 154 347 154 397 q 172 258 154 301 q 223 183 190 215 q 299 131 256 150 q 392 111 342 111 q 512 144 454 111 q 601 231 569 176 l 739 231 z "},"e":{"ha":786,"x_min":56,"x_max":744,"o":"m 731 72 q 617 10 682 38 q 468 -17 551 -17 q 342 3 400 -17 q 242 61 285 24 q 174 154 200 99 q 146 281 149 210 l 146 288 q 101 284 124 285 q 56 275 78 283 l 56 401 q 101 410 79 408 q 147 414 124 411 q 178 536 151 481 q 249 632 204 592 q 354 694 293 672 q 489 717 415 717 q 632 682 568 717 q 713 606 681 654 q 744 496 744 557 q 701 376 744 432 q 595 301 657 318 q 461 283 533 283 q 387 286 429 283 q 310 289 344 289 q 292 288 300 289 q 276 286 283 288 l 276 279 q 331 155 276 197 q 468 113 386 113 q 545 119 510 113 q 612 139 581 126 q 672 168 643 151 q 731 204 701 185 l 731 72 m 506 596 q 423 585 463 596 q 352 551 383 574 q 301 495 321 529 q 276 414 281 461 l 351 417 q 409 413 375 414 q 475 413 443 413 q 531 416 503 413 q 580 430 558 419 q 615 458 601 440 q 628 504 628 476 q 590 575 628 554 q 506 596 553 596 z "},"ă":{"ha":1157,"x_min":0,"x_max":0,"o":""},"o":{"ha":794,"x_min":28,"x_max":767,"o":"m 399 -15 q 255 14 322 -15 q 137 93 188 43 q 57 210 86 143 q 28 351 28 276 q 57 494 28 428 q 137 611 86 561 q 255 690 188 661 q 399 719 322 719 q 541 690 474 719 q 658 611 608 661 q 738 494 708 561 q 767 351 767 428 q 738 210 767 276 q 658 93 708 143 q 541 14 608 43 q 399 -15 474 -15 m 399 589 q 304 570 349 589 q 227 519 260 551 q 175 444 194 488 q 156 351 156 401 q 175 258 156 301 q 227 183 194 215 q 304 131 260 150 q 399 113 349 113 q 492 131 449 113 q 569 183 536 150 q 620 258 601 215 q 639 351 639 301 q 620 444 639 401 q 569 519 601 488 q 492 570 536 551 q 399 589 449 589 z "},"y":{"ha":743,"x_min":56,"x_max":688,"o":"m 688 696 q 616 535 646 626 q 556 349 586 444 q 492 161 526 253 q 405 -3 457 69 q 278 -121 353 -76 q 93 -165 203 -165 l 69 -165 l 69 -46 q 176 -35 133 -46 q 250 -2 219 -24 q 303 50 281 19 q 347 121 325 81 l 56 696 l 188 696 l 411 261 q 442 367 428 314 q 475 473 457 419 q 515 582 493 526 q 569 696 538 638 l 688 696 z "},"p":{"ha":726,"x_min":83,"x_max":699,"o":"m 347 711 q 493 684 428 711 q 604 608 558 657 q 674 494 650 560 q 699 349 699 428 q 676 217 699 282 q 608 100 653 151 q 499 17 564 49 q 350 -15 435 -15 q 276 -12 315 -15 q 213 -3 236 -8 l 213 -240 l 83 -240 l 83 642 q 151 674 115 661 q 221 696 186 688 q 288 708 256 704 q 347 711 321 711 m 579 369 q 556 466 579 425 q 497 533 533 507 q 415 571 461 558 q 321 583 368 583 q 213 564 268 583 l 213 128 q 267 120 236 122 q 321 118 297 118 q 428 133 381 118 q 510 178 476 147 q 561 256 543 208 q 579 369 579 303 z "},"q":{"ha":726,"x_min":28,"x_max":643,"o":"m 379 711 q 438 708 406 711 q 506 696 471 704 q 576 674 540 688 q 643 642 611 661 l 643 -240 l 514 -240 l 514 -3 q 451 -12 490 -8 q 376 -15 411 -15 q 227 17 292 -15 q 118 100 163 49 q 51 217 74 151 q 28 349 28 282 q 52 494 28 428 q 122 608 76 560 q 233 684 168 657 q 379 711 297 711 m 147 369 q 217 178 147 238 q 406 118 286 118 q 460 120 429 118 q 514 128 490 122 l 514 564 q 406 583 458 583 q 312 571 358 583 q 229 533 265 558 q 170 466 193 507 q 147 369 147 425 z "},"x":{"ha":811,"x_min":56,"x_max":756,"o":"m 329 354 l 64 694 l 219 694 l 406 454 l 592 694 l 747 694 l 485 354 l 756 -1 l 603 -1 l 406 254 l 208 -1 l 56 -1 l 329 354 z "},"D":{"ha":932,"x_min":83,"x_max":890,"o":"m 83 3 l 83 869 q 221 883 146 876 q 376 889 296 889 q 571 860 478 889 q 735 774 664 831 q 848 634 806 717 q 890 443 890 551 q 848 238 890 324 q 733 96 806 151 q 563 14 660 40 q 357 -12 467 -12 q 278 -12 319 -12 q 199 -9 236 -11 q 131 -4 161 -7 q 83 3 100 -1 m 206 756 l 206 118 q 275 108 235 111 q 346 104 315 104 q 507 124 431 104 q 642 184 583 143 q 735 289 700 225 q 769 443 769 353 q 733 592 769 531 q 637 692 696 653 q 505 749 578 731 q 360 767 432 767 q 275 763 315 767 q 206 756 235 760 z "},"b":{"ha":732,"x_min":83,"x_max":704,"o":"m 704 353 q 673 194 704 263 q 588 79 642 125 q 465 10 535 33 q 319 -14 396 -14 q 201 -1 261 -14 q 83 39 140 13 l 83 896 l 213 896 l 213 685 q 278 704 236 699 q 356 710 321 710 q 505 679 440 710 q 614 598 569 649 q 681 483 658 547 q 704 353 704 419 m 585 332 q 567 445 585 399 q 515 521 549 492 q 434 563 482 550 q 326 576 386 576 q 268 571 303 576 q 213 554 233 565 l 213 142 q 274 124 240 131 q 339 118 307 118 q 427 131 385 118 q 503 169 469 143 q 559 236 538 196 q 585 332 581 276 z "},"d":{"ha":732,"x_min":28,"x_max":649,"o":"m 28 353 q 51 483 28 419 q 118 598 74 547 q 227 679 163 649 q 376 710 292 710 q 453 704 411 710 q 519 685 496 699 l 519 896 l 649 896 l 649 39 q 531 -1 592 13 q 413 -14 471 -14 q 267 10 336 -14 q 144 79 197 33 q 59 194 90 125 q 28 353 28 263 m 147 332 q 173 236 151 276 q 228 169 194 196 q 305 131 263 143 q 393 118 347 118 q 458 124 425 118 q 519 142 492 131 l 519 554 q 464 571 499 565 q 406 576 429 576 q 217 520 286 576 q 147 332 147 464 z "},"J":{"ha":736,"x_min":42,"x_max":653,"o":"m 653 874 l 653 339 q 652 297 653 321 q 648 245 651 272 q 637 190 644 218 q 615 135 629 161 q 507 24 579 63 q 349 -15 435 -15 q 229 8 285 -15 q 132 73 174 32 q 66 169 90 114 q 42 286 42 224 l 160 286 q 174 215 160 249 q 215 155 189 181 q 275 115 240 129 q 349 100 310 100 q 419 115 386 100 q 478 155 453 129 q 519 215 504 181 q 533 286 533 249 l 533 874 l 653 874 z "},"L":{"ha":665,"x_min":83,"x_max":638,"o":"m 204 121 l 638 121 l 638 0 l 83 0 l 83 874 l 204 874 l 204 121 z "},"Q":{"ha":994,"x_min":42,"x_max":953,"o":"m 496 -15 q 319 20 401 -15 q 175 117 236 56 q 78 261 114 179 q 42 438 42 343 q 78 613 42 531 q 175 756 114 694 q 319 853 236 818 q 496 889 401 889 q 674 853 590 889 q 819 756 757 818 q 917 613 881 694 q 953 438 953 531 q 917 261 953 343 q 819 117 881 179 q 674 20 757 56 q 496 -15 590 -15 m 496 768 q 366 742 426 768 q 260 671 306 715 q 189 566 215 626 q 163 438 163 506 q 189 308 163 368 q 260 203 215 247 q 366 132 306 158 q 496 106 426 106 q 628 132 567 106 q 734 203 689 158 q 805 308 779 247 q 831 438 831 368 q 805 566 831 506 q 734 671 779 626 q 628 742 689 715 q 496 768 567 768 m 946 -97 q 862 -85 907 -96 q 778 -51 817 -74 q 715 6 740 -29 q 689 89 689 40 l 804 132 l 804 158 q 834 68 804 104 q 946 29 864 32 l 946 -97 z "},"S":{"ha":790,"x_min":42,"x_max":749,"o":"m 164 340 l 164 297 q 190 213 168 249 q 244 152 211 176 q 319 115 278 128 q 401 103 360 103 q 485 113 444 103 q 557 144 525 124 q 608 196 589 165 q 628 267 628 226 q 603 336 628 311 q 540 374 579 361 q 451 393 501 388 q 349 406 401 399 q 246 424 296 413 q 157 463 196 436 q 94 535 118 490 q 69 653 69 581 q 97 762 69 715 q 169 840 124 808 q 271 886 214 871 q 388 901 328 901 q 504 886 447 901 q 606 840 561 871 q 679 762 651 808 q 708 653 707 715 l 708 624 l 589 624 l 589 653 q 563 710 583 686 q 513 751 542 735 q 448 776 483 768 q 376 785 413 785 q 306 776 340 785 q 247 751 272 768 q 205 710 221 735 q 189 653 189 686 q 213 584 189 608 q 276 547 238 560 q 366 528 315 533 q 469 515 417 522 q 572 494 521 507 q 661 455 622 482 q 724 383 700 428 q 749 267 749 339 q 721 135 749 189 q 647 47 693 81 q 542 -3 601 13 q 422 -19 483 -19 q 141 76 240 -19 q 42 340 42 171 l 164 340 z "},"U":{"ha":881,"x_min":83,"x_max":797,"o":"m 203 874 l 203 278 q 224 201 203 233 q 281 147 246 169 q 360 115 315 125 q 450 104 404 104 q 534 114 493 104 q 607 144 575 124 q 658 199 639 165 q 678 278 678 232 l 678 874 l 797 874 l 797 261 q 767 142 797 193 q 688 56 738 90 q 575 3 639 21 q 443 -14 511 -14 q 310 4 375 -14 q 195 58 246 22 q 114 149 144 94 q 83 278 83 204 l 83 874 l 203 874 z "},"V":{"ha":899,"x_min":42,"x_max":857,"o":"m 510 0 l 385 0 l 42 874 l 168 874 l 510 0 m 731 874 l 857 874 l 513 0 l 388 0 l 731 874 z "},"W":{"ha":1301,"x_min":56,"x_max":1244,"o":"m 431 0 l 307 0 l 56 874 l 181 874 l 431 0 m 583 661 l 710 661 l 443 0 l 318 0 l 583 661 m 572 661 l 707 661 l 572 661 m 894 0 l 769 0 l 518 874 l 644 874 l 894 0 m 1117 872 l 1244 872 l 906 0 l 779 0 l 1117 872 z "},"Z":{"ha":876,"x_min":83,"x_max":793,"o":"m 644 781 l 786 751 l 221 82 l 85 119 l 644 781 m 96 751 l 96 872 l 786 872 l 786 751 l 96 751 m 83 -1 l 83 119 l 793 119 l 793 -1 l 83 -1 z "},"g":{"ha":758,"x_min":56,"x_max":717,"o":"m 563 190 q 631 124 604 165 q 658 35 658 83 q 634 -53 658 -14 q 572 -119 610 -92 q 486 -162 533 -147 q 392 -178 439 -178 q 280 -166 332 -178 q 188 -132 228 -154 q 119 -80 147 -110 q 79 -12 90 -50 q 75 6 76 -6 q 74 29 74 17 q 80 72 74 49 q 103 121 86 96 q 67 174 78 139 q 56 239 56 210 q 71 312 56 285 q 110 367 86 339 q 78 429 86 399 q 67 489 69 460 q 87 583 68 540 q 138 658 106 626 q 215 706 171 689 q 314 724 260 724 q 407 719 358 724 q 464 715 435 717 q 524 713 493 713 q 616 719 568 713 q 717 744 664 725 l 717 622 q 640 606 676 611 l 640 597 q 615 472 639 532 q 548 367 590 413 q 447 293 506 321 q 321 265 389 265 q 200 293 256 265 q 172 233 172 269 q 173 224 172 228 q 175 214 174 219 q 196 213 181 213 q 240 215 215 213 q 283 218 264 217 q 341 223 311 221 q 401 225 371 225 q 485 218 444 225 q 563 190 526 211 m 313 610 q 222 579 260 610 q 182 489 185 549 q 194 444 182 464 q 227 411 207 425 q 272 390 247 397 q 319 382 296 382 q 399 399 363 382 q 463 446 436 417 q 506 514 490 475 q 525 597 522 553 l 507 597 q 450 599 478 597 q 397 604 422 601 q 351 608 372 607 q 313 610 331 610 m 188 25 q 205 -9 188 7 q 249 -37 222 -25 q 311 -56 276 -49 q 381 -62 346 -62 q 441 -57 411 -62 q 494 -39 471 -51 q 531 -8 517 -26 q 544 38 544 11 q 529 71 544 56 q 490 96 514 86 q 434 111 465 106 q 371 117 403 117 q 305 111 338 117 q 246 94 272 106 q 203 66 219 83 q 188 25 188 49 z "},"f":{"ha":525,"x_min":69,"x_max":456,"o":"m 454 790 q 363 777 401 790 q 317 719 324 764 l 317 696 l 456 696 l 456 574 l 317 574 l 317 -4 l 194 -4 l 194 574 l 69 574 l 69 697 l 193 697 q 213 785 193 746 q 267 853 232 825 q 350 898 303 882 q 454 914 397 914 l 454 790 z "},"h":{"ha":800,"x_min":83,"x_max":717,"o":"m 208 597 q 245 659 218 635 q 303 697 272 683 q 365 715 335 710 q 413 719 396 719 q 549 700 492 719 q 644 639 607 681 q 699 530 681 597 q 717 367 717 463 l 717 -1 l 592 -1 l 592 367 q 594 389 593 378 q 594 411 594 400 q 582 478 594 444 q 547 538 569 511 q 490 580 524 564 q 414 596 456 596 q 344 579 381 596 q 278 534 308 563 q 229 467 249 506 q 210 385 210 429 l 210 -1 l 83 -1 l 83 897 l 210 897 l 208 597 z "},"n":{"ha":800,"x_min":83,"x_max":717,"o":"m 208 597 q 245 659 218 635 q 303 697 272 683 q 365 715 335 710 q 413 719 396 719 q 549 700 492 719 q 644 639 607 681 q 699 530 681 597 q 717 367 717 463 l 717 -1 l 592 -1 l 592 371 q 585 453 592 414 q 558 522 578 492 q 506 572 539 553 q 418 594 472 590 q 343 581 381 594 q 276 540 306 567 q 228 474 247 513 q 210 385 210 435 l 210 -1 l 83 -1 l 83 694 l 210 694 l 208 597 z "},"j":{"ha":378,"x_min":28,"x_max":294,"o":"m 28 -118 q 119 -89 81 -118 q 165 -15 158 -60 l 165 696 l 289 696 l 289 7 q 269 -87 289 -42 q 215 -166 250 -132 q 131 -221 179 -200 q 28 -242 83 -242 l 28 -118 m 225 797 q 177 816 197 797 q 157 863 157 835 q 177 909 157 890 q 225 928 197 928 q 274 909 254 928 q 294 863 294 890 q 274 816 294 835 q 225 797 254 797 z "},"i":{"ha":304,"x_min":83,"x_max":221,"o":"m 213 0 l 92 0 l 92 693 l 213 693 l 213 0 m 151 797 q 103 816 124 797 q 83 863 83 835 q 103 909 83 890 q 151 928 124 928 q 201 909 181 928 q 221 863 221 890 q 201 816 221 835 q 151 797 181 797 z "},"l":{"ha":288,"x_min":83,"x_max":204,"o":"m 204 0 l 83 0 l 83 874 l 204 874 l 204 0 z "},"m":{"ha":1185,"x_min":83,"x_max":1101,"o":"m 210 628 q 249 675 225 657 q 299 703 274 693 q 349 716 325 713 q 389 719 374 719 q 550 694 489 719 q 639 631 611 669 q 685 674 658 657 q 740 702 713 692 q 792 716 768 713 q 826 719 815 719 q 951 701 899 719 q 1036 640 1003 682 q 1085 530 1069 597 q 1101 367 1101 463 l 1101 1 l 976 1 l 976 371 q 972 453 976 414 q 953 524 968 493 q 910 573 939 554 q 832 594 882 592 q 774 586 804 594 q 720 558 744 578 q 680 503 696 538 q 664 417 664 468 l 664 1 l 539 1 l 539 417 q 535 472 539 442 q 516 528 531 501 q 473 573 501 554 q 394 594 444 592 q 328 585 361 594 q 268 553 294 576 q 226 490 242 531 q 210 385 210 449 l 210 -1 l 83 -1 l 83 694 l 210 694 l 210 628 z "},"r":{"ha":529,"x_min":83,"x_max":501,"o":"m 501 594 l 435 594 q 351 581 392 594 q 278 540 310 567 q 228 474 247 513 q 210 385 210 435 l 210 -1 l 83 -1 l 83 694 l 208 694 l 208 622 q 249 672 222 653 q 307 702 275 692 q 372 716 339 713 q 429 719 404 719 l 500 719 l 501 594 z "},"s":{"ha":661,"x_min":42,"x_max":619,"o":"m 174 519 q 207 458 174 479 q 290 424 240 438 q 397 400 339 411 q 503 367 454 389 q 586 306 553 344 q 619 200 619 267 q 596 103 619 144 q 534 35 572 63 q 446 -5 496 8 q 344 -18 396 -18 q 235 -3 289 -18 q 138 42 181 13 q 68 115 94 71 q 42 217 42 158 q 42 229 42 222 q 43 247 43 236 l 160 247 q 158 236 158 242 q 158 225 158 231 q 175 169 158 193 q 218 128 192 144 q 278 104 244 113 q 346 96 311 96 q 404 103 376 96 q 453 122 432 110 q 488 153 475 135 q 501 194 501 171 q 469 251 501 232 q 388 281 436 269 q 282 304 339 293 q 176 338 225 315 q 95 401 128 361 q 63 510 63 440 q 83 602 63 563 q 139 667 104 642 q 219 706 174 693 q 313 719 264 719 q 416 704 365 719 q 507 659 467 689 q 572 583 547 629 q 596 478 596 538 l 596 454 l 483 454 q 485 468 485 461 q 486 482 486 475 q 472 537 486 513 q 435 577 458 561 q 381 601 411 593 q 319 610 351 610 q 219 585 260 610 q 174 519 178 560 z "},"t":{"ha":525,"x_min":69,"x_max":456,"o":"m 454 -4 q 350 17 397 -4 q 267 72 303 38 q 213 151 232 106 q 193 244 193 196 l 193 578 l 69 578 l 69 694 l 194 694 l 194 914 l 317 914 l 317 694 l 456 694 l 456 578 l 317 578 l 317 222 q 363 149 324 178 q 454 119 401 119 l 454 -4 z "},"u":{"ha":800,"x_min":83,"x_max":717,"o":"m 592 97 q 555 35 582 60 q 497 -2 528 11 q 435 -20 465 -15 q 388 -25 404 -25 q 251 -6 308 -25 q 156 56 193 14 q 101 165 119 97 q 83 328 83 232 l 83 696 l 208 696 l 208 324 q 215 242 208 281 q 242 172 222 203 q 294 123 261 142 q 382 100 328 104 q 457 114 419 100 q 524 155 494 128 q 572 221 553 182 q 590 310 590 260 l 590 696 l 717 696 l 717 0 l 590 0 l 592 97 z "},"v":{"ha":760,"x_min":28,"x_max":732,"o":"m 444 0 l 314 0 l 601 693 l 732 693 l 444 0 m 446 0 l 315 0 l 28 693 l 158 693 l 446 0 z "},"z":{"ha":767,"x_min":83,"x_max":683,"o":"m 556 603 l 682 574 l 208 82 l 83 119 l 556 603 m 85 574 l 85 694 l 682 694 l 682 574 l 85 574 m 83 -1 l 83 119 l 683 119 l 683 -1 l 83 -1 z "},"w":{"ha":1138,"x_min":56,"x_max":1082,"o":"m 829 0 l 699 0 l 443 693 l 574 693 l 829 0 m 826 0 l 696 0 l 951 693 l 1082 693 l 826 0 m 442 0 l 311 0 l 56 693 l 186 693 l 442 0 m 439 0 l 308 0 l 504 528 l 635 528 l 439 0 z "},"[":{"ha":324,"x_min":56,"x_max":282,"o":"m 56 -162 l 56 872 l 282 872 l 282 751 l 176 751 l 176 -42 l 282 -42 l 282 -162 l 56 -162 z "},"]":{"ha":324,"x_min":42,"x_max":268,"o":"m 42 -162 l 42 -42 l 147 -42 l 147 751 l 42 751 l 42 872 l 268 872 l 268 -162 l 42 -162 z "},"\\":{"ha":682,"x_min":56,"x_max":626,"o":"m 626 0 l 493 0 l 56 874 l 189 874 l 626 0 z "},"/":{"ha":682,"x_min":56,"x_max":626,"o":"m 493 874 l 626 874 l 189 0 l 56 0 l 493 874 z "},"\"":{"ha":575,"x_min":56,"x_max":506,"o":"m 56 517 l 56 622 q 108 636 88 624 q 142 669 129 649 q 159 714 154 689 q 164 767 164 739 l 164 868 l 271 868 l 271 797 q 269 741 271 771 q 260 681 267 711 q 240 624 253 651 q 206 574 228 596 q 56 517 149 517 m 290 517 l 290 622 q 343 636 322 624 q 376 669 364 649 q 394 714 389 689 q 399 767 399 739 l 399 868 l 506 868 l 506 797 q 503 741 506 771 q 494 681 501 711 q 475 624 488 651 q 440 574 463 596 q 290 517 383 517 z "},"'":{"ha":313,"x_min":42,"x_max":257,"o":"m 42 517 l 42 622 q 94 636 74 624 q 128 669 115 649 q 145 714 140 689 q 150 767 150 739 l 150 868 l 257 868 l 257 797 q 255 741 257 771 q 246 681 253 711 q 226 624 239 651 q 192 574 214 596 q 42 517 135 517 z "},"%":{"ha":1040,"x_min":28,"x_max":1013,"o":"m 224 0 l 357 0 l 794 874 l 661 874 l 224 0 m 239 469 q 156 486 194 469 q 90 531 118 503 q 44 598 61 560 q 28 681 28 636 q 44 764 28 725 q 90 831 61 803 q 156 876 118 860 q 239 893 194 893 q 323 876 283 893 q 392 831 363 860 q 438 764 421 803 q 454 681 454 725 q 438 598 454 636 q 392 531 421 560 q 323 486 363 503 q 239 469 283 469 m 239 786 q 165 756 194 786 q 135 681 135 725 q 165 606 135 636 q 239 576 194 576 q 314 606 283 576 q 344 681 344 636 q 314 756 344 725 q 239 786 283 786 m 797 -14 q 715 3 753 -14 q 648 48 676 19 q 603 115 619 76 q 586 197 586 153 q 603 281 586 242 q 648 348 619 319 q 715 393 676 376 q 797 410 753 410 q 881 393 842 410 q 950 348 921 376 q 996 281 979 319 q 1013 197 1013 242 q 996 115 1013 153 q 950 48 979 76 q 881 3 921 19 q 797 -14 842 -14 m 797 303 q 723 272 753 303 q 693 197 693 242 q 723 123 693 153 q 797 93 753 93 q 872 123 842 93 q 903 197 903 153 q 872 272 903 242 q 797 303 842 303 z "},"Ӑ":{"ha":1157,"x_min":0,"x_max":0,"o":""},"_":{"ha":749,"x_min":56,"x_max":693,"o":"m 693 -242 l 693 -369 l 56 -369 l 56 -242 l 693 -242 z "},"#":{"ha":1011,"x_min":28,"x_max":983,"o":"m 674 874 l 804 874 l 650 0 l 517 0 l 674 874 m 358 874 l 489 874 l 335 0 l 201 0 l 358 874 m 925 333 l 903 206 l 28 206 l 50 333 l 925 333 m 983 661 l 961 533 l 86 533 l 108 661 l 983 661 z "},"<":{"ha":614,"x_min":42,"x_max":558,"o":"m 42 346 l 394 694 l 558 694 l 206 346 l 558 -1 l 394 -1 l 42 346 z "},">":{"ha":614,"x_min":56,"x_max":572,"o":"m 572 347 l 219 -1 l 56 -1 l 408 347 l 56 694 l 219 694 l 572 347 z "},"?":{"ha":672,"x_min":56,"x_max":617,"o":"m 272 236 q 308 352 272 303 q 386 444 343 401 q 465 530 429 488 q 500 625 500 572 q 487 695 500 665 q 451 745 474 725 q 398 775 428 765 q 335 785 368 785 q 217 740 260 785 q 174 618 174 694 l 174 567 l 56 567 l 56 622 q 77 736 60 685 q 128 824 94 788 q 214 880 163 860 q 335 900 265 900 q 449 880 397 900 q 539 824 501 860 q 597 737 576 788 q 617 625 617 686 q 600 535 617 575 q 558 463 583 496 q 505 401 533 429 q 451 347 476 374 q 410 294 426 321 q 393 236 393 267 l 272 236 m 393 0 l 272 0 l 272 146 l 393 146 l 393 0 z "},"$":{"ha":818,"x_min":56,"x_max":763,"o":"m 763 267 q 738 142 763 194 q 673 56 714 90 q 579 4 632 22 q 469 -18 526 -14 l 469 -121 l 350 -121 l 350 -12 q 132 101 208 10 q 56 340 56 192 l 178 340 l 178 297 q 234 172 185 218 q 350 110 283 125 l 350 407 q 252 426 300 414 q 167 466 204 439 q 106 538 129 493 q 83 653 83 582 q 106 751 83 708 q 165 825 128 794 q 249 874 201 856 q 350 899 297 892 l 350 1008 l 469 1008 l 469 896 q 565 870 519 889 q 646 821 611 851 q 701 749 681 790 q 722 653 722 707 l 722 624 l 603 624 l 603 653 q 557 731 594 701 q 469 775 519 761 l 469 517 q 576 497 524 510 q 670 458 629 485 q 737 386 711 432 q 763 267 763 340 m 203 653 q 214 603 203 624 q 245 568 225 582 q 292 546 265 554 q 350 532 318 538 l 350 782 q 247 742 290 774 q 203 653 203 710 m 469 107 q 535 126 504 113 q 590 159 567 139 q 628 206 614 179 q 642 267 642 233 q 628 322 642 300 q 592 358 615 344 q 537 380 568 372 q 469 392 506 388 l 469 107 z "},"&":{"ha":1100,"x_min":42,"x_max":1058,"o":"m 896 435 q 962 402 932 424 q 1013 350 992 381 q 1047 284 1035 319 q 1058 211 1058 249 q 1041 122 1058 163 q 993 51 1024 81 q 921 4 963 21 q 832 -12 879 -12 q 715 22 764 -12 q 622 115 665 57 q 573 69 601 93 q 509 26 544 46 q 431 -7 474 6 q 342 -19 389 -19 q 223 4 278 -19 q 128 69 168 28 q 65 165 88 110 q 42 283 42 221 q 59 390 42 339 q 108 482 76 442 q 185 549 140 522 q 285 585 229 576 q 272 624 274 606 q 271 671 271 643 q 289 760 271 718 q 338 833 307 801 q 410 882 368 864 q 499 900 451 900 q 588 882 546 900 q 660 833 629 864 q 710 760 692 801 q 728 671 728 718 q 713 588 728 626 q 671 520 697 550 q 608 470 644 490 q 529 444 571 450 l 751 143 q 789 119 768 126 q 832 111 810 111 q 906 137 872 111 q 939 211 939 163 q 910 287 939 254 q 836 324 881 319 l 836 444 q 867 441 851 443 q 896 435 882 439 m 499 779 q 422 747 454 779 q 390 671 390 715 q 400 626 390 646 q 425 594 410 607 q 460 574 440 581 q 500 567 479 567 q 574 593 540 567 q 607 671 607 619 q 575 747 607 715 q 499 779 543 779 m 342 100 q 410 113 378 100 q 469 144 442 125 q 517 183 496 163 q 554 222 539 204 l 363 469 l 326 474 q 256 456 288 472 q 203 414 225 440 q 170 353 182 388 q 158 283 158 319 q 173 213 158 246 q 213 154 188 179 q 271 115 238 129 q 342 100 304 100 z "},"*":{"ha":533,"x_min":56,"x_max":478,"o":"m 215 632 l 114 567 l 56 667 l 164 721 l 57 776 l 114 876 l 215 810 l 208 931 l 324 931 l 317 810 l 419 876 l 476 776 l 369 721 l 478 667 l 419 567 l 317 633 l 324 511 l 208 511 l 215 632 z "},"@":{"ha":1089,"x_min":42,"x_max":1047,"o":"m 1047 511 q 1006 307 1047 403 q 893 140 964 211 q 726 26 822 68 q 522 -15 631 -15 q 335 23 422 -15 q 182 126 247 61 q 79 279 117 192 q 42 465 42 367 q 76 635 42 556 q 170 774 111 715 q 309 868 229 833 q 479 903 389 903 q 632 871 560 903 q 759 785 704 839 q 846 658 814 731 q 878 504 878 585 q 857 385 878 439 q 803 292 836 331 q 728 233 769 254 q 644 213 686 213 q 571 235 603 213 q 523 218 549 224 q 472 213 497 213 q 384 230 426 213 q 308 278 342 247 q 256 353 275 310 q 236 446 236 396 q 256 540 236 497 q 311 613 276 582 q 394 660 346 643 q 496 676 442 676 l 515 676 l 515 706 l 629 706 l 629 372 q 633 341 629 350 q 639 329 636 332 q 644 326 639 326 q 678 336 658 326 q 717 367 699 346 q 749 423 736 389 q 763 504 763 457 q 740 613 763 561 q 679 704 718 665 q 589 766 640 743 q 479 789 538 789 q 353 763 413 789 q 251 694 294 738 q 181 591 207 650 q 156 465 156 532 q 184 324 156 390 q 263 208 213 257 q 379 130 313 158 q 522 101 446 101 q 682 134 607 101 q 813 222 757 167 q 901 352 868 278 q 933 511 933 426 l 1047 511 m 350 444 q 360 399 350 421 q 386 362 369 378 q 424 336 403 346 q 471 326 446 326 q 518 336 499 326 q 516 348 517 340 q 515 378 515 356 q 515 442 515 400 q 515 560 515 485 q 501 562 508 561 q 488 563 494 563 q 393 534 433 563 q 350 444 353 506 z "},"^":{"ha":779,"x_min":42,"x_max":738,"o":"m 389 906 l 738 553 l 738 389 l 389 742 l 42 392 l 42 556 l 389 906 z "},"`":{"ha":297,"x_min":42,"x_max":256,"o":"m 256 797 l 122 797 l 42 956 l 175 956 l 256 797 z "},"«":{"ha":915,"x_min":42,"x_max":874,"o":"m 42 346 l 394 694 l 558 694 l 206 346 l 558 -1 l 394 -1 l 42 346 m 357 346 l 710 694 l 874 694 l 521 346 l 874 -1 l 710 -1 l 357 346 z "},"»":{"ha":915,"x_min":42,"x_max":874,"o":"m 521 -1 l 357 -1 l 710 346 l 357 694 l 521 694 l 874 346 l 521 -1 m 206 -1 l 42 -1 l 394 346 l 42 694 l 206 694 l 558 346 l 206 -1 z "},"X":{"ha":901,"x_min":28,"x_max":874,"o":"m 525 444 l 874 -1 l 721 -1 l 450 347 l 178 -1 l 28 -1 l 375 444 l 42 874 l 192 874 l 450 542 l 710 874 l 860 874 l 525 444 z "}}}
